<?xml version="1.0" encoding="UTF-8" standalone="no"?>
<svg
   xmlns:dc="http://purl.org/dc/elements/1.1/"
   xmlns:cc="http://creativecommons.org/ns#"
   xmlns:rdf="http://www.w3.org/1999/02/22-rdf-syntax-ns#"
   xmlns:svg="http://www.w3.org/2000/svg"
   xmlns="http://www.w3.org/2000/svg"
   xmlns:sodipodi="http://sodipodi.sourceforge.net/DTD/sodipodi-0.dtd"
   xmlns:inkscape="http://www.inkscape.org/namespaces/inkscape"
   id="Layer_1"
   data-name="Layer 1"
   viewBox="0 0 682 682"
   version="1.1"
   sodipodi:docname="gitlab.svg"
   inkscape:version="0.92.2 (5c3e80d, 2017-08-06)"
   width="682"
   height="682">
  <metadata
     id="metadata959">
    <rdf:RDF>
      <cc:Work
         rdf:about="">
        <dc:format>image/svg+xml</dc:format>
        <dc:type
           rdf:resource="http://purl.org/dc/dcmitype/StillImage" />
        <dc:title>stacked_wm</dc:title>
      </cc:Work>
    </rdf:RDF>
  </metadata>
  <sodipodi:namedview
     pagecolor="#ffffff"
     bordercolor="#666666"
     borderopacity="1"
     objecttolerance="10"
     gridtolerance="10"
     guidetolerance="10"
     inkscape:pageopacity="0"
     inkscape:pageshadow="2"
     inkscape:window-width="1916"
     inkscape:window-height="1161"
     id="namedview957"
     showgrid="false"
     inkscape:zoom="1.0119299"
     inkscape:cx="308.07259"
     inkscape:cy="377.2491"
     inkscape:window-x="3286"
     inkscape:window-y="37"
     inkscape:window-maximized="0"
     inkscape:current-layer="Layer_1"
     fit-margin-top="0"
     fit-margin-left="0"
     fit-margin-right="0"
     fit-margin-bottom="0"
     showguides="false" />
  <defs
     id="defs923">
    <style
       id="style921">.cls-1{fill:#30353e;}.cls-2{fill:#8c929d;}.cls-3{fill:#fc6d26;}.cls-4{fill:#e24329;}.cls-5{fill:#fca326;}</style>
  </defs>
  <title
     id="title925">stacked_wm</title>
  <rect
     y="0.50799561"
     x="0.50799561"
     style="fill:#30353e;fill-opacity:1;stroke-width:1.33004689"
     height="680.98401"
     rx="19.950705%"
     width="680.98401"
     id="rect1634" />
  <g
     id="g977"
     transform="matrix(1.2759822,0,0,1.2759822,-55.893148,37.540656)">
    <g
       id="g44">
      <path
         d="m 525.05,266.23 -24,-74 L 453.36,45.6 a 8.19,8.19 0 0 0 -15.58,0 L 390.12,192.24 H 231.88 L 184.22,45.6 a 8.19,8.19 0 0 0 -15.58,0 L 121,192.24 l -24,74 a 16.38,16.38 0 0 0 6,18.31 L 311,435.71 519.1,284.54 a 16.38,16.38 0 0 0 6,-18.31"
         class="cls-3"
         id="path46"
         inkscape:connector-curvature="0"
         style="fill:#fc6d26" />
    </g>
    <g
       id="g48">
      <path
         d="m 311,435.71 v 0 L 390.12,192.24 H 231.88 Z"
         class="cls-4"
         id="path50"
         inkscape:connector-curvature="0"
         style="fill:#e24329" />
    </g>
    <g
       id="g56">
      <path
         d="M 311,435.71 231.88,192.24 H 121 Z"
         class="cls-3"
         id="path58"
         inkscape:connector-curvature="0"
         style="fill:#fc6d26" />
    </g>
    <g
       id="g64">
      <path
         d="m 121,192.24 v 0 l -24,74 a 16.37,16.37 0 0 0 6,18.31 L 311,435.7 Z"
         class="cls-5"
         id="path66"
         inkscape:connector-curvature="0"
         style="fill:#fca326" />
    </g>
    <g
       id="g72">
      <path
         d="M 121,192.24 H 231.88 L 184.22,45.6 a 8.19,8.19 0 0 0 -15.58,0 z"
         class="cls-4"
         id="path74"
         inkscape:connector-curvature="0"
         style="fill:#e24329" />
    </g>
    <g
       id="g76">
      <path
         d="M 311,435.71 390.12,192.24 H 501 Z"
         class="cls-3"
         id="path78"
         inkscape:connector-curvature="0"
         style="fill:#fc6d26" />
    </g>
    <g
       id="g80">
      <path
         d="m 501,192.24 v 0 l 24,74 a 16.37,16.37 0 0 1 -6,18.31 L 311,435.7 Z"
         class="cls-5"
         id="path82"
         inkscape:connector-curvature="0"
         style="fill:#fca326" />
    </g>
    <g
       id="g84">
      <path
         d="M 501,192.24 H 390.12 L 437.78,45.6 a 8.19,8.19 0 0 1 15.58,0 z"
         class="cls-4"
         id="path86"
         inkscape:connector-curvature="0"
         style="fill:#e24329" />
    </g>
  </g>
</svg>
