<?xml version="1.0" encoding="UTF-8" standalone="no"?>
<svg
   xmlns:dc="http://purl.org/dc/elements/1.1/"
   xmlns:cc="http://creativecommons.org/ns#"
   xmlns:rdf="http://www.w3.org/1999/02/22-rdf-syntax-ns#"
   xmlns:svg="http://www.w3.org/2000/svg"
   xmlns="http://www.w3.org/2000/svg"
   xmlns:sodipodi="http://sodipodi.sourceforge.net/DTD/sodipodi-0.dtd"
   xmlns:inkscape="http://www.inkscape.org/namespaces/inkscape"
   version="1.1"
   width="1425.8466"
   height="1230.1942"
   viewBox="0 0 142.58465 123.01942"
   id="svg2834"
   sodipodi:docname="translocation_dotplot_exemple.svg"
   inkscape:version="0.92.4 (unknown)">
  <metadata
     id="metadata2840">
    <rdf:RDF>
      <cc:Work
         rdf:about="">
        <dc:format>image/svg+xml</dc:format>
        <dc:type
           rdf:resource="http://purl.org/dc/dcmitype/StillImage" />
        <dc:title></dc:title>
      </cc:Work>
    </rdf:RDF>
  </metadata>
  <defs
     id="defs2838" />
  <sodipodi:namedview
     pagecolor="#ffffff"
     bordercolor="#666666"
     borderopacity="1"
     objecttolerance="10"
     gridtolerance="10"
     guidetolerance="10"
     inkscape:pageopacity="0"
     inkscape:pageshadow="2"
     inkscape:window-width="1918"
     inkscape:window-height="1058"
     id="namedview2836"
     showgrid="false"
     showguides="true"
     inkscape:guide-bbox="true"
     fit-margin-top="20"
     fit-margin-left="20"
     fit-margin-right="20"
     fit-margin-bottom="20"
     inkscape:zoom="0.4355"
     inkscape:cx="704.15038"
     inkscape:cy="511.81196"
     inkscape:window-x="1366"
     inkscape:window-y="20"
     inkscape:window-maximized="1"
     inkscape:current-layer="svg2834">
    <sodipodi:guide
       position="76.617538,113.98265"
       orientation="1,0"
       id="guide6682"
       inkscape:locked="false" />
    <sodipodi:guide
       position="20.13075,122.01939"
       orientation="0,1"
       id="guide6720"
       inkscape:locked="false" />
    <sodipodi:guide
       position="32.75991,34.763362"
       orientation="0,1"
       id="guide6722"
       inkscape:locked="false" />
    <sodipodi:guide
       position="46.307549,102.73121"
       orientation="1,0"
       id="guide6776"
       inkscape:locked="false" />
    <sodipodi:guide
       position="141.14107,82.065311"
       orientation="1,0"
       id="guide6778"
       inkscape:locked="false" />
  </sodipodi:namedview>
  <path
     style="stroke:#ffd84b;stroke-width:2.5px;stroke-linecap:round"
     inkscape:connector-curvature="0"
     id="path2126"
     class="content-lines s_2 idy_0"
     d="" />
  <path
     style="stroke:#d5670b;stroke-width:2.5px;stroke-linecap:round"
     inkscape:connector-curvature="0"
     id="path2140"
     class="content-lines s_2 idy_1"
     d="m 110.64109,53.997088 1.6814,-1.55517 m -15.046999,16.86943 4.234999,-3.78317 m 12.6486,-14.8621 3.2417,-2.97297 m 7.0058,-6.57361 2.1017,-1.92373 m -67.733899,-21.15541 9.3801,-8.5431401 m 61.251499,26.8387801 9.9154,-8.93017 m -12.9181,11.6927 3.0468,-2.78494 m -12.2682,11.37877 7.2556,-6.57103 m -23.0451,22.17122 1.9102,-1.71904 m -24.263199,25.16188 4.4155,-3.95531 m -10.373,-77.6415001 1.9821,-1.8763 m 28.962499,56.8195301 4.4325,-4.00607 m 0.007,-0.0115 1.7271,-1.55703 m -20.878999,22.74258 7.9833,-7.22159 m -29.215,-60.3766201 5.0089,-4.51591 m -21.5121,19.3782501 7.2032,-6.50629 m -10.3397,9.36973 1.7842,-1.59888 m 34.2799,55.77179 4.8219,-4.32609"
     sodipodi:nodetypes="cccccccccccccccccccccccccccccccccccc" />
  <path
     style="stroke:#2ebd40;stroke-width:2.5px;stroke-linecap:round"
     inkscape:connector-curvature="0"
     id="path2148"
     class="content-lines s_0_03 idy_2"
     d="" />
  <path
     style="stroke:#2ebd40;stroke-width:2.5px;stroke-linecap:round"
     inkscape:connector-curvature="0"
     id="path2152"
     class="content-lines s_1 idy_2"
     d="" />
  <path
     style="stroke:#2ebd40;stroke-width:2.5px;stroke-linecap:round"
     inkscape:connector-curvature="0"
     id="path2154"
     class="content-lines s_2 idy_2"
     d="" />
  <path
     style="stroke:#094b09;stroke-width:2.5px;stroke-linecap:round"
     inkscape:connector-curvature="0"
     id="path2158"
     class="content-lines s_0_01 idy_3"
     d="" />
  <path
     style="stroke:#094b09;stroke-width:2.5px;stroke-linecap:round"
     inkscape:connector-curvature="0"
     id="path2160"
     class="content-lines s_0_02 idy_3"
     d="" />
  <path
     style="stroke:#094b09;stroke-width:2.5px;stroke-linecap:round"
     inkscape:connector-curvature="0"
     id="path2162"
     class="content-lines s_0_03 idy_3"
     d="" />
  <path
     style="stroke:#094b09;stroke-width:2.5px;stroke-linecap:round"
     inkscape:connector-curvature="0"
     id="path2164"
     class="content-lines s_0_05 idy_3"
     d="" />
  <path
     style="stroke:#094b09;stroke-width:2.5px;stroke-linecap:round"
     inkscape:connector-curvature="0"
     id="path2166"
     class="content-lines s_1 idy_3"
     d="" />
  <path
     style="stroke:#094b09;stroke-width:2.5px;stroke-linecap:round"
     inkscape:connector-curvature="0"
     id="path2168"
     class="content-lines s_2 idy_3"
     d="" />
  <line
     id="line4536"
     style="stroke:#7c7c7c;stroke-width:0.66666669;stroke-dasharray:3, 3"
     class="break-lines"
     y2="-496.01486"
     x2="76.847153"
     y1="503.98514"
     x1="76.847153" />
  <line
     id="line4536-1"
     style="stroke:#7c7c7c;stroke-width:0.66666669;stroke-dasharray:3, 3"
     class="break-lines"
     y2="1.2296488"
     x2="-358.39969"
     y1="1.2296488"
     x1="641.60034" />
  <line
     id="line4536-1-2"
     style="stroke:#7c7c7c;stroke-width:0.66666669;stroke-dasharray:3, 3"
     class="break-lines"
     y2="88.48568"
     x2="-298.69818"
     y1="88.48568"
     x1="701.30182" />
  <text
     xml:space="preserve"
     style="font-style:normal;font-variant:normal;font-weight:normal;font-stretch:normal;font-size:142.659729px;line-height:18.57548523px;font-family:C059;-inkscape-font-specification:C059;text-align:center;letter-spacing:0px;word-spacing:0px;text-anchor:middle;fill:none;stroke:#000000;stroke-width:0.74301946px;stroke-linecap:butt;stroke-linejoin:miter;stroke-opacity:1"
     x="35.016869"
     y="226.74594"
     id="text6646"
     transform="scale(1.2437466,0.80402229)"><tspan
       sodipodi:role="line"
       id="tspan6644"
       x="35.016869"
       y="269.84406"
       style="font-style:normal;font-variant:normal;font-weight:normal;font-stretch:normal;font-size:142.659729px;font-family:C059;-inkscape-font-specification:C059;stroke-width:0.74301946px" /></text>
  <g
     aria-label="II"
     transform="matrix(0.1,0,0,0.1,-130.84046,-182.81168)"
     style="font-style:normal;font-variant:normal;font-weight:normal;font-stretch:normal;font-size:96px;line-height:25px;font-family:STIX;-inkscape-font-specification:STIX;text-align:center;letter-spacing:0px;word-spacing:0px;text-anchor:middle;fill:#000000;fill-opacity:1;stroke:none;stroke-width:1px;stroke-linecap:butt;stroke-linejoin:miter;stroke-opacity:1"
     id="flowRoot6648">
    <path
       d="m 1924.699,2832.1367 v -1.824 c -7.872,-0.288 -9.408,-1.728 -9.408,-8.928 v -42.144 c 0,-7.296 1.344,-8.448 9.408,-8.832 v -1.824 h -28.512 v 1.824 c 8.16,0.48 9.312,1.248 9.312,8.832 v 42.144 c 0,7.488 -1.248,8.64 -9.312,8.928 v 1.824 z"
       style=""
       id="path6899" />
    <path
       d="m 1956.7615,2832.1367 v -1.824 c -7.872,-0.288 -9.408,-1.728 -9.408,-8.928 v -42.144 c 0,-7.296 1.344,-8.448 9.408,-8.832 v -1.824 h -28.512 v 1.824 c 8.16,0.48 9.312,1.248 9.312,8.832 v 42.144 c 0,7.488 -1.248,8.64 -9.312,8.928 v 1.824 z"
       style=""
       id="path6901" />
  </g>
  <g
     aria-label="V"
     transform="matrix(0.1,0,0,0.1,-84.185719,-182.81168)"
     style="font-style:normal;font-variant:normal;font-weight:normal;font-stretch:normal;font-size:96px;line-height:25px;font-family:STIX;-inkscape-font-specification:STIX;text-align:center;letter-spacing:0px;word-spacing:0px;text-anchor:middle;fill:#000000;fill-opacity:1;stroke:none;stroke-width:1px;stroke-linecap:butt;stroke-linejoin:miter;stroke-opacity:1"
     id="flowRoot6648-9">
    <path
       d="m 1958.746,2768.5847 h -19.584 v 1.824 c 3.84,0.384 6.912,0.192 6.912,3.936 0,1.632 -0.672,4.032 -1.824,6.912 l -14.112,35.424 -14.592,-32.832 c -2.88,-6.432 -3.744,-8.736 -3.744,-10.272 0,-1.92 1.248,-2.784 4.32,-2.976 l 2.688,-0.192 v -1.824 h -25.44 v 1.824 c 4.8,0.096 6.24,1.248 10.368,10.56 l 23.424,52.224 h 1.44 l 21.312,-54.048 c 2.784,-7.104 4.992,-8.64 8.832,-8.736 z"
       style=""
       id="path6904" />
  </g>
  <g
     aria-label="C. elegans
miniasm assembly
utg16L"
     transform="matrix(0.1,0,0,0.1,-170.9897,-254.30362)"
     style="font-style:normal;font-variant:normal;font-weight:normal;font-stretch:normal;font-size:96px;line-height:1em;font-family:STIX;-inkscape-font-specification:STIX;text-align:center;letter-spacing:0px;word-spacing:0px;text-anchor:middle;fill:#000000;fill-opacity:1;stroke:none;stroke-width:1px;stroke-linecap:butt;stroke-linejoin:miter;stroke-opacity:1"
     id="flowRoot6648-5">
    <path
       d="m 1786.153,2855.0607 c -7.2,6.816 -12.48,9.696 -21.12,9.696 -6.624,0 -12.864,-2.4 -17.088,-6.912 -4.512,-4.896 -6.912,-12.384 -6.912,-22.944 0,-16.608 8.544,-28.32 23.04,-28.32 6.24,0 11.232,2.784 15.456,7.296 2.4,2.592 3.84,5.376 4.992,10.656 h 2.208 l -0.864,-21.792 h -1.92 c -0.576,2.016 -2.208,3.168 -4.032,3.168 -1.632,0 -4.608,-1.152 -6.624,-1.728 -3.84,-1.056 -7.68,-1.44 -11.424,-1.44 -8.928,0 -17.184,3.168 -23.328,9.984 -5.472,6.144 -8.64,14.112 -8.64,23.712 0,9.504 3.36,18.24 9.216,24 5.568,5.472 13.92,8.544 22.656,8.544 11.328,0 20.64,-4.224 26.208,-12.192 z"
       style=""
       id="path6801" />
    <path
       d="m 1808.71,2863.5087 c 0,-2.88 -2.496,-5.472 -5.28,-5.472 -2.976,0 -5.376,2.4 -5.376,5.376 0,2.976 2.304,5.28 5.28,5.28 2.88,0 5.376,-2.4 5.376,-5.184 z"
       style=""
       id="path6803" />
    <path
       d="m 1878.502,2851.8927 c -4.704,7.104 -8.352,10.08 -14.784,10.08 -4.416,0 -7.968,-1.728 -10.656,-5.28 -3.456,-4.608 -3.936,-8.352 -4.416,-15.648 h 29.568 c -0.384,-5.184 -1.344,-8.256 -3.264,-10.944 -3.072,-4.32 -7.392,-6.624 -13.344,-6.624 -12.096,0 -19.872,9.792 -19.872,23.328 0,13.248 6.912,21.792 18.24,21.792 9.6,0 16.32,-5.568 20.064,-16.032 z m -29.664,-13.92 c 1.056,-7.2 4.8,-11.04 10.176,-11.04 6.336,0 8.352,3.264 9.408,11.04 z"
       style=""
       id="path6805" />
    <path
       d="m 1906.5685,2867.6367 v -1.44 c -6.144,-0.384 -7.2,-1.632 -7.2,-6.912 v -56.832 l -0.48,-0.384 c -4.992,1.632 -8.544,2.592 -15.168,4.224 v 1.536 c 1.536,-0.192 2.784,-0.192 3.552,-0.192 3.072,0 4.032,1.536 4.032,6.144 v 45.024 c 0,5.28 -1.344,6.912 -7.392,7.392 v 1.44 z"
       style=""
       id="path6807" />
    <path
       d="m 1947.6895,2851.8927 c -4.704,7.104 -8.352,10.08 -14.784,10.08 -4.416,0 -7.968,-1.728 -10.656,-5.28 -3.456,-4.608 -3.936,-8.352 -4.416,-15.648 h 29.568 c -0.384,-5.184 -1.344,-8.256 -3.264,-10.944 -3.072,-4.32 -7.392,-6.624 -13.344,-6.624 -12.096,0 -19.872,9.792 -19.872,23.328 0,13.248 6.912,21.792 18.24,21.792 9.6,0 16.32,-5.568 20.064,-16.032 z m -29.664,-13.92 c 1.056,-7.2 4.8,-11.04 10.176,-11.04 6.336,0 8.352,3.264 9.408,11.04 z"
       style=""
       id="path6809" />
    <path
       d="m 1996.204,2830.3887 v -3.744 h -7.392 c -1.92,0 -3.36,-0.288 -5.28,-0.96 l -2.112,-0.768 c -2.592,-0.96 -5.184,-1.44 -7.68,-1.44 -8.928,0 -16.032,6.912 -16.032,15.648 0,6.048 2.496,9.696 8.928,12.864 -1.344,1.344 -2.688,2.592 -4.128,3.84 -3.168,2.784 -4.416,4.704 -4.416,6.624 0,2.112 1.056,3.168 5.088,5.088 -6.912,4.992 -9.408,8.16 -9.408,11.712 0,5.088 7.392,9.312 16.608,9.312 6.912,0 14.208,-2.304 19.2,-6.144 3.936,-3.072 5.76,-6.24 5.76,-10.08 0,-5.952 -4.512,-9.984 -11.616,-10.272 l -12.384,-0.576 c -5.184,-0.288 -7.488,-1.056 -7.488,-2.592 0,-1.92 3.168,-5.28 5.76,-6.048 l 1.824,0.192 c 1.728,0.192 3.072,0.288 3.648,0.288 3.36,0 6.912,-1.44 9.984,-3.744 3.456,-2.592 4.992,-6.144 4.992,-11.136 0,-2.784 -0.48,-4.992 -1.824,-8.064 z m -30.528,4.8 c 0,-5.664 2.688,-9.024 7.104,-9.024 2.976,0 5.472,1.632 7.008,4.512 1.824,3.36 2.88,7.68 2.88,11.616 0,5.28 -2.784,8.64 -7.104,8.64 -5.952,0 -9.888,-6.24 -9.888,-15.456 z m 26.976,38.592 c 0,5.568 -7.296,9.312 -18.24,9.312 -8.448,0 -13.92,-2.784 -13.92,-7.008 0,-2.208 0.864,-3.648 4.704,-8.256 3.264,0.672 10.848,1.248 15.552,1.248 8.736,0 11.904,1.152 11.904,4.704 z"
       style=""
       id="path6811" />
    <path
       d="m 2040.391,2861.3007 c -1.632,1.344 -2.592,1.824 -4.128,1.824 -1.728,0 -2.976,-1.92 -2.976,-6.336 v -18.336 c 0,-5.856 -0.384,-7.872 -2.688,-10.656 -2.304,-2.784 -5.952,-4.32 -11.328,-4.32 -4.32,0 -8.352,1.152 -11.04,2.88 -3.36,2.112 -4.896,5.184 -4.896,7.68 0,2.592 2.112,4.416 4.128,4.416 2.496,0 4.416,-2.112 4.416,-3.936 0,-2.016 -0.576,-2.304 -0.576,-4.032 0,-2.592 2.88,-4.704 6.72,-4.704 4.32,0 7.488,2.688 7.488,8.64 v 5.184 c -10.848,4.032 -14.4,5.856 -17.28,7.776 -3.744,2.496 -6.72,6.24 -6.72,11.232 0,6.336 4.128,9.984 10.08,9.984 4.128,0 8.832,-1.248 13.92,-7.008 h 0.096 c 0.48,5.088 2.592,7.008 6.144,7.008 3.264,0 5.76,-0.96 8.64,-4.608 z m -14.88,-5.856 c 0,2.784 -0.576,4.128 -3.36,6.048 -1.632,1.056 -3.648,1.536 -5.568,1.536 -3.744,0 -6.624,-2.304 -6.624,-7.392 0,-2.976 0.96,-5.28 3.264,-7.392 2.4,-2.208 6.336,-4.224 12.288,-6.336 z"
       style=""
       id="path6813" />
    <path
       d="m 2087.0815,2867.6367 v -1.44 c -4.704,-0.48 -5.856,-1.536 -5.856,-6.72 v -21.216 c 0,-9.504 -4.032,-14.784 -11.328,-14.784 -4.416,0 -8.832,2.112 -13.824,7.776 h -0.096 v -7.488 l -0.768,-0.288 c -4.704,1.728 -7.872,2.784 -13.152,4.32 v 1.632 c 0.672,-0.288 1.728,-0.384 2.784,-0.384 2.688,0 3.36,1.536 3.36,6.24 v 23.328 c 0,5.664 -1.056,7.2 -5.952,7.584 v 1.44 h 20.256 v -1.44 c -4.896,-0.384 -6.24,-1.728 -6.24,-5.472 v -26.496 c 4.416,-4.32 6.72,-5.472 9.888,-5.472 4.704,0 7.008,2.88 7.008,9.696 v 19.104 c 0,6.336 -1.152,8.256 -5.952,8.64 l -0.096,1.44 z"
       style=""
       id="path6815" />
    <path
       d="m 2103.4975,2838.7407 c -2.688,-1.632 -4.128,-4.416 -4.128,-6.528 0,-4.512 3.072,-6.528 7.2,-6.528 5.76,0 8.64,3.168 10.848,11.808 h 1.44 l -0.48,-13.056 h -1.056 c -0.768,0.864 -1.152,0.96 -1.536,0.96 -0.672,0 -1.632,-0.288 -2.688,-0.768 -2.016,-0.96 -4.128,-1.056 -6.432,-1.056 -7.872,0 -13.248,4.224 -13.248,11.808 0,4.896 3.552,9.504 11.52,13.92 l 5.184,2.88 c 3.168,1.728 5.088,4.224 5.088,7.2 0,3.936 -3.072,7.104 -7.968,7.104 -6.624,0 -10.176,-4.224 -12.192,-13.536 h -1.536 v 15.072 h 1.248 c 0.576,-0.96 1.152,-1.152 2.304,-1.152 1.056,0 2.112,0.096 4.416,0.864 2.208,0.768 4.992,0.864 7.008,0.864 7.296,0 13.44,-5.568 13.44,-12 0,-5.472 -2.304,-8.064 -8.448,-11.808 z"
       style=""
       id="path6817" />
    <path
       d="m 1835.734,2963.6367 v -1.44 l -2.496,-0.192 c -2.88,-0.192 -4.128,-1.44 -4.128,-5.76 v -19.488 c 0,-11.328 -3.36,-17.28 -11.136,-17.28 -5.568,0 -10.464,2.496 -15.648,8.064 -1.728,-5.472 -4.992,-8.064 -10.176,-8.064 -4.32,0 -8.352,0.864 -14.688,7.392 h -0.192 v -7.104 l -0.768,-0.288 c -4.896,1.824 -8.064,2.88 -13.344,4.32 v 1.632 c 1.248,-0.288 2.016,-0.384 3.072,-0.384 2.496,0 3.36,1.632 3.36,6.336 v 23.808 c 0,5.568 -1.344,6.912 -6.72,7.008 v 1.44 h 21.312 v -1.44 c -5.088,-0.192 -6.528,-1.152 -6.528,-5.28 v -26.688 c 0,-0.192 0.576,-0.864 1.248,-1.632 1.92,-2.304 6.624,-4.128 10.176,-4.128 4.128,0 6.24,4.032 6.24,10.656 v 20.256 c 0,5.856 -1.056,6.432 -6.528,6.816 v 1.44 h 21.504 v -1.44 c -5.472,-0.096 -6.912,-1.44 -6.912,-7.68 v -24.192 c 2.88,-4.128 5.76,-5.856 10.272,-5.856 5.472,0 7.392,3.168 7.392,10.752 v 19.776 c 0,5.568 -0.864,6.624 -6.24,7.2 v 1.44 z"
       style=""
       id="path6819" />
    <path
       d="m 1853.239,2902.9647 c 0,-2.688 -2.112,-4.896 -4.896,-4.896 -2.688,0 -4.896,2.208 -4.896,4.896 0,2.784 2.112,4.896 4.8,4.896 2.88,0 4.992,-2.112 4.992,-4.896 z m 7.008,60.672 v -1.44 c -6.336,-0.48 -7.104,-1.536 -7.104,-8.64 v -33.696 l -0.384,-0.384 -14.88,5.28 v 1.536 c 1.728,-0.48 3.168,-0.48 4.032,-0.48 2.4,0 3.168,1.536 3.168,6.048 v 21.792 c 0,7.296 -0.96,8.16 -7.584,8.544 v 1.44 z"
       style=""
       id="path6821" />
    <path
       d="m 1909.144,2963.6367 v -1.44 c -4.704,-0.48 -5.856,-1.536 -5.856,-6.72 v -21.216 c 0,-9.504 -4.032,-14.784 -11.328,-14.784 -4.416,0 -8.832,2.112 -13.824,7.776 h -0.096 v -7.488 l -0.768,-0.288 c -4.704,1.728 -7.872,2.784 -13.152,4.32 v 1.632 c 0.672,-0.288 1.728,-0.384 2.784,-0.384 2.688,0 3.36,1.536 3.36,6.24 v 23.328 c 0,5.664 -1.056,7.2 -5.952,7.584 v 1.44 h 20.256 v -1.44 c -4.896,-0.384 -6.24,-1.728 -6.24,-5.472 v -26.496 c 4.416,-4.32 6.72,-5.472 9.888,-5.472 4.704,0 7.008,2.88 7.008,9.696 v 19.104 c 0,6.336 -1.152,8.256 -5.952,8.64 l -0.096,1.44 z"
       style=""
       id="path6823" />
    <path
       d="m 1927.864,2902.9647 c 0,-2.688 -2.112,-4.896 -4.896,-4.896 -2.688,0 -4.896,2.208 -4.896,4.896 0,2.784 2.112,4.896 4.8,4.896 2.88,0 4.992,-2.112 4.992,-4.896 z m 7.008,60.672 v -1.44 c -6.336,-0.48 -7.104,-1.536 -7.104,-8.64 v -33.696 l -0.384,-0.384 -14.88,5.28 v 1.536 c 1.728,-0.48 3.168,-0.48 4.032,-0.48 2.4,0 3.168,1.536 3.168,6.048 v 21.792 c 0,7.296 -0.96,8.16 -7.584,8.544 v 1.44 z"
       style=""
       id="path6825" />
    <path
       d="m 1979.641,2957.3007 c -1.632,1.344 -2.592,1.824 -4.128,1.824 -1.728,0 -2.976,-1.92 -2.976,-6.336 v -18.336 c 0,-5.856 -0.384,-7.872 -2.688,-10.656 -2.304,-2.784 -5.952,-4.32 -11.328,-4.32 -4.32,0 -8.352,1.152 -11.04,2.88 -3.36,2.112 -4.896,5.184 -4.896,7.68 0,2.592 2.112,4.416 4.128,4.416 2.496,0 4.416,-2.112 4.416,-3.936 0,-2.016 -0.576,-2.304 -0.576,-4.032 0,-2.592 2.88,-4.704 6.72,-4.704 4.32,0 7.488,2.688 7.488,8.64 v 5.184 c -10.848,4.032 -14.4,5.856 -17.28,7.776 -3.744,2.496 -6.72,6.24 -6.72,11.232 0,6.336 4.128,9.984 10.08,9.984 4.128,0 8.832,-1.248 13.92,-7.008 h 0.096 c 0.48,5.088 2.592,7.008 6.144,7.008 3.264,0 5.76,-0.96 8.64,-4.608 z m -14.88,-5.856 c 0,2.784 -0.576,4.128 -3.36,6.048 -1.632,1.056 -3.648,1.536 -5.568,1.536 -3.744,0 -6.624,-2.304 -6.624,-7.392 0,-2.976 0.96,-5.28 3.264,-7.392 2.4,-2.208 6.336,-4.224 12.288,-6.336 z"
       style=""
       id="path6827" />
    <path
       d="m 1994.7475,2934.7407 c -2.688,-1.632 -4.128,-4.416 -4.128,-6.528 0,-4.512 3.072,-6.528 7.2,-6.528 5.76,0 8.64,3.168 10.848,11.808 h 1.44 l -0.48,-13.056 h -1.056 c -0.768,0.864 -1.152,0.96 -1.536,0.96 -0.672,0 -1.632,-0.288 -2.688,-0.768 -2.016,-0.96 -4.128,-1.056 -6.432,-1.056 -7.872,0 -13.248,4.224 -13.248,11.808 0,4.896 3.552,9.504 11.52,13.92 l 5.184,2.88 c 3.168,1.728 5.088,4.224 5.088,7.2 0,3.936 -3.072,7.104 -7.968,7.104 -6.624,0 -10.176,-4.224 -12.192,-13.536 h -1.536 v 15.072 h 1.248 c 0.576,-0.96 1.152,-1.152 2.304,-1.152 1.056,0 2.112,0.096 4.416,0.864 2.208,0.768 4.992,0.864 7.008,0.864 7.296,0 13.44,-5.568 13.44,-12 0,-5.472 -2.304,-8.064 -8.448,-11.808 z"
       style=""
       id="path6829" />
    <path
       d="m 2091.484,2963.6367 v -1.44 l -2.496,-0.192 c -2.88,-0.192 -4.128,-1.44 -4.128,-5.76 v -19.488 c 0,-11.328 -3.36,-17.28 -11.136,-17.28 -5.568,0 -10.464,2.496 -15.648,8.064 -1.728,-5.472 -4.992,-8.064 -10.176,-8.064 -4.32,0 -8.352,0.864 -14.688,7.392 h -0.192 v -7.104 l -0.768,-0.288 c -4.896,1.824 -8.064,2.88 -13.344,4.32 v 1.632 c 1.248,-0.288 2.016,-0.384 3.072,-0.384 2.496,0 3.36,1.632 3.36,6.336 v 23.808 c 0,5.568 -1.344,6.912 -6.72,7.008 v 1.44 h 21.312 v -1.44 c -5.088,-0.192 -6.528,-1.152 -6.528,-5.28 v -26.688 c 0,-0.192 0.576,-0.864 1.248,-1.632 1.92,-2.304 6.624,-4.128 10.176,-4.128 4.128,0 6.24,4.032 6.24,10.656 v 20.256 c 0,5.856 -1.056,6.432 -6.528,6.816 v 1.44 h 21.504 v -1.44 c -5.472,-0.096 -6.912,-1.44 -6.912,-7.68 v -24.192 c 2.88,-4.128 5.76,-5.856 10.272,-5.856 5.472,0 7.392,3.168 7.392,10.752 v 19.776 c 0,5.568 -0.864,6.624 -6.24,7.2 v 1.44 z"
       style=""
       id="path6831" />
    <path
       d="m 1791.4847,3053.3007 c -1.632,1.344 -2.592,1.824 -4.128,1.824 -1.728,0 -2.976,-1.92 -2.976,-6.336 v -18.336 c 0,-5.856 -0.384,-7.872 -2.688,-10.656 -2.304,-2.784 -5.952,-4.32 -11.328,-4.32 -4.32,0 -8.352,1.152 -11.04,2.88 -3.36,2.112 -4.896,5.184 -4.896,7.68 0,2.592 2.112,4.416 4.128,4.416 2.496,0 4.416,-2.112 4.416,-3.936 0,-2.016 -0.576,-2.304 -0.576,-4.032 0,-2.592 2.88,-4.704 6.72,-4.704 4.32,0 7.488,2.688 7.488,8.64 v 5.184 c -10.848,4.032 -14.4,5.856 -17.28,7.776 -3.744,2.496 -6.72,6.24 -6.72,11.232 0,6.336 4.128,9.984 10.08,9.984 4.128,0 8.832,-1.248 13.92,-7.008 h 0.096 c 0.48,5.088 2.592,7.008 6.144,7.008 3.264,0 5.76,-0.96 8.64,-4.608 z m -14.88,-5.856 c 0,2.784 -0.576,4.128 -3.36,6.048 -1.632,1.056 -3.648,1.536 -5.568,1.536 -3.744,0 -6.624,-2.304 -6.624,-7.392 0,-2.976 0.96,-5.28 3.264,-7.392 2.4,-2.208 6.336,-4.224 12.288,-6.336 z"
       style=""
       id="path6833" />
    <path
       d="m 1806.5912,3030.7407 c -2.688,-1.632 -4.128,-4.416 -4.128,-6.528 0,-4.512 3.072,-6.528 7.2,-6.528 5.76,0 8.64,3.168 10.848,11.808 h 1.44 l -0.48,-13.056 h -1.056 c -0.768,0.864 -1.152,0.96 -1.536,0.96 -0.672,0 -1.632,-0.288 -2.688,-0.768 -2.016,-0.96 -4.128,-1.056 -6.432,-1.056 -7.872,0 -13.248,4.224 -13.248,11.808 0,4.896 3.552,9.504 11.52,13.92 l 5.184,2.88 c 3.168,1.728 5.088,4.224 5.088,7.2 0,3.936 -3.072,7.104 -7.968,7.104 -6.624,0 -10.176,-4.224 -12.192,-13.536 h -1.536 v 15.072 h 1.248 c 0.576,-0.96 1.152,-1.152 2.304,-1.152 1.056,0 2.112,0.096 4.416,0.864 2.208,0.768 4.992,0.864 7.008,0.864 7.296,0 13.44,-5.568 13.44,-12 0,-5.472 -2.304,-8.064 -8.448,-11.808 z"
       style=""
       id="path6835" />
    <path
       d="m 1843.9037,3030.7407 c -2.688,-1.632 -4.128,-4.416 -4.128,-6.528 0,-4.512 3.072,-6.528 7.2,-6.528 5.76,0 8.64,3.168 10.848,11.808 h 1.44 l -0.48,-13.056 h -1.056 c -0.768,0.864 -1.152,0.96 -1.536,0.96 -0.672,0 -1.632,-0.288 -2.688,-0.768 -2.016,-0.96 -4.128,-1.056 -6.432,-1.056 -7.872,0 -13.248,4.224 -13.248,11.808 0,4.896 3.552,9.504 11.52,13.92 l 5.184,2.88 c 3.168,1.728 5.088,4.224 5.088,7.2 0,3.936 -3.072,7.104 -7.968,7.104 -6.624,0 -10.176,-4.224 -12.192,-13.536 h -1.536 v 15.072 h 1.248 c 0.576,-0.96 1.152,-1.152 2.304,-1.152 1.056,0 2.112,0.096 4.416,0.864 2.208,0.768 4.992,0.864 7.008,0.864 7.296,0 13.44,-5.568 13.44,-12 0,-5.472 -2.304,-8.064 -8.448,-11.808 z"
       style=""
       id="path6837" />
    <path
       d="m 1905.4082,3043.8927 c -4.704,7.104 -8.352,10.08 -14.784,10.08 -4.416,0 -7.968,-1.728 -10.656,-5.28 -3.456,-4.608 -3.936,-8.352 -4.416,-15.648 h 29.568 c -0.384,-5.184 -1.344,-8.256 -3.264,-10.944 -3.072,-4.32 -7.392,-6.624 -13.344,-6.624 -12.096,0 -19.872,9.792 -19.872,23.328 0,13.248 6.912,21.792 18.24,21.792 9.6,0 16.32,-5.568 20.064,-16.032 z m -29.664,-13.92 c 1.056,-7.2 4.8,-11.04 10.176,-11.04 6.336,0 8.352,3.264 9.408,11.04 z"
       style=""
       id="path6839" />
    <path
       d="m 1983.2027,3059.6367 v -1.44 l -2.496,-0.192 c -2.88,-0.192 -4.128,-1.44 -4.128,-5.76 v -19.488 c 0,-11.328 -3.36,-17.28 -11.136,-17.28 -5.568,0 -10.464,2.496 -15.648,8.064 -1.728,-5.472 -4.992,-8.064 -10.176,-8.064 -4.32,0 -8.352,0.864 -14.688,7.392 h -0.192 v -7.104 l -0.768,-0.288 c -4.896,1.824 -8.064,2.88 -13.344,4.32 v 1.632 c 1.248,-0.288 2.016,-0.384 3.072,-0.384 2.496,0 3.36,1.632 3.36,6.336 v 23.808 c 0,5.568 -1.344,6.912 -6.72,7.008 v 1.44 h 21.312 v -1.44 c -5.088,-0.192 -6.528,-1.152 -6.528,-5.28 v -26.688 c 0,-0.192 0.576,-0.864 1.248,-1.632 1.92,-2.304 6.624,-4.128 10.176,-4.128 4.128,0 6.24,4.032 6.24,10.656 v 20.256 c 0,5.856 -1.056,6.432 -6.528,6.816 v 1.44 h 21.504 v -1.44 c -5.472,-0.096 -6.912,-1.44 -6.912,-7.68 v -24.192 c 2.88,-4.128 5.76,-5.856 10.272,-5.856 5.472,0 7.392,3.168 7.392,10.752 v 19.776 c 0,5.568 -0.864,6.624 -6.24,7.2 v 1.44 z"
       style=""
       id="path6841" />
    <path
       d="m 1998.1157,2994.2607 -0.48,-0.192 c -4.032,1.44 -6.528,2.016 -11.04,3.36 l -2.88,0.864 v 1.632 c 0.48,-0.096 0.96,-0.192 1.632,-0.192 3.936,0 4.704,0.768 4.704,5.568 v 48.96 c 0,3.264 8.064,6.336 15.84,6.336 12.672,0 22.464,-9.792 22.464,-24 0,-11.904 -7.008,-21.12 -17.28,-21.12 -5.856,0 -10.944,3.168 -12.96,8.064 z m 0,34.848 c 0,-4.032 4.416,-7.584 9.504,-7.584 3.456,0 6.528,1.632 8.544,4.512 2.4,3.36 3.744,8.928 3.744,14.688 0,5.568 -1.248,9.792 -3.552,12.672 -2.112,2.688 -5.184,4.128 -8.928,4.128 -4.992,0 -9.312,-1.92 -9.312,-4.992 z"
       style=""
       id="path6843" />
    <path
       d="m 2056.0997,3059.6367 v -1.44 c -6.144,-0.384 -7.2,-1.632 -7.2,-6.912 v -56.832 l -0.48,-0.384 c -4.992,1.632 -8.544,2.592 -15.168,4.224 v 1.536 c 1.536,-0.192 2.784,-0.192 3.552,-0.192 3.072,0 4.032,1.536 4.032,6.144 v 45.024 c 0,5.28 -1.344,6.912 -7.392,7.392 v 1.44 z"
       style=""
       id="path6845" />
    <path
       d="m 2101.5902,3016.4367 h -12.768 v 1.44 c 2.976,0 4.416,0.768 4.416,2.304 0,0.384 -0.096,1.056 -0.384,1.728 l -9.312,26.496 -10.752,-24 c -0.576,-1.344 -1.248,-2.88 -1.248,-3.936 0,-1.728 1.344,-2.4 5.472,-2.592 v -1.44 h -19.68 v 1.344 c 2.496,0.384 4.128,1.248 5.088,3.36 l 12.672,27.072 c 1.824,3.84 4.032,8.256 4.032,9.696 0,1.536 -1.92,7.584 -3.84,10.368 -1.536,2.304 -3.456,4.224 -4.8,4.224 -0.576,0 -1.44,-0.096 -2.496,-0.672 -1.728,-0.96 -3.264,-1.248 -4.992,-1.248 -2.304,0 -4.128,2.016 -4.128,4.416 0,3.168 2.592,5.568 6.72,5.568 7.296,0 11.808,-4.896 16.8,-18.528 l 14.4,-39.264 c 1.344,-3.552 2.496,-4.608 4.8,-4.896 z"
       style=""
       id="path6847" />
    <path
       d="m 1833.9452,3150.8367 h -0.576 c -4.416,0 -5.472,-1.056 -5.472,-5.472 v -32.928 h -15.168 v 1.632 c 5.76,0.384 7.104,1.152 7.104,6.24 v 22.176 c 0,3.36 -0.672,4.224 -2.208,5.568 -2.4,2.112 -5.28,2.976 -8.064,2.976 -3.744,0 -6.816,-3.168 -6.816,-7.584 v -31.008 h -14.016 v 1.344 c 4.608,0.288 5.952,1.632 5.952,6.432 v 24.096 c 0,7.392 4.32,12.288 11.712,12.288 3.552,0 9.024,-1.824 13.728,-8.256 h 0.192 v 7.872 l 0.48,0.288 c 4.8,-1.92 8.256,-2.976 13.152,-4.32 z"
       style=""
       id="path6849" />
    <path
       d="m 1861.4012,3148.2447 c -2.112,2.496 -3.648,3.36 -5.76,3.36 -3.552,0 -4.992,-2.496 -4.992,-8.64 v -27.456 h 9.696 v -3.072 h -9.696 v -11.136 c 0,-0.96 -0.192,-1.248 -0.672,-1.248 -0.576,0.96 -1.344,1.824 -1.92,2.688 -3.648,5.28 -6.816,8.832 -9.312,10.272 -1.056,0.672 -1.632,1.248 -1.632,1.824 0,0.288 0.096,0.48 0.384,0.672 h 5.088 v 28.896 c 0,8.064 2.88,12.192 8.448,12.192 4.8,0 8.448,-2.304 11.616,-7.296 z"
       style=""
       id="path6851" />
    <path
       d="m 1907.6102,3118.3887 v -3.744 h -7.392 c -1.92,0 -3.36,-0.288 -5.28,-0.96 l -2.112,-0.768 c -2.592,-0.96 -5.184,-1.44 -7.68,-1.44 -8.928,0 -16.032,6.912 -16.032,15.648 0,6.048 2.496,9.696 8.928,12.864 -1.344,1.344 -2.688,2.592 -4.128,3.84 -3.168,2.784 -4.416,4.704 -4.416,6.624 0,2.112 1.056,3.168 5.088,5.088 -6.912,4.992 -9.408,8.16 -9.408,11.712 0,5.088 7.392,9.312 16.608,9.312 6.912,0 14.208,-2.304 19.2,-6.144 3.936,-3.072 5.76,-6.24 5.76,-10.08 0,-5.952 -4.512,-9.984 -11.616,-10.272 l -12.384,-0.576 c -5.184,-0.288 -7.488,-1.056 -7.488,-2.592 0,-1.92 3.168,-5.28 5.76,-6.048 l 1.824,0.192 c 1.728,0.192 3.072,0.288 3.648,0.288 3.36,0 6.912,-1.44 9.984,-3.744 3.456,-2.592 4.992,-6.144 4.992,-11.136 0,-2.784 -0.48,-4.992 -1.824,-8.064 z m -30.528,4.8 c 0,-5.664 2.688,-9.024 7.104,-9.024 2.976,0 5.472,1.632 7.008,4.512 1.824,3.36 2.88,7.68 2.88,11.616 0,5.28 -2.784,8.64 -7.104,8.64 -5.952,0 -9.888,-6.24 -9.888,-15.456 z m 26.976,38.592 c 0,5.568 -7.296,9.312 -18.24,9.312 -8.448,0 -13.92,-2.784 -13.92,-7.008 0,-2.208 0.864,-3.648 4.704,-8.256 3.264,0.672 10.848,1.248 15.552,1.248 8.736,0 11.904,1.152 11.904,4.704 z"
       style=""
       id="path6853" />
    <path
       d="m 1948.3142,3155.6367 v -1.44 c -7.2,0 -9.12,-1.728 -9.12,-5.856 v -57.312 l -0.864,-0.288 -17.184,8.736 v 1.344 l 2.592,-0.96 c 1.728,-0.672 3.36,-1.152 4.32,-1.152 2.016,0 2.88,1.44 2.88,4.704 v 43.104 c 0,5.28 -2.016,7.296 -9.12,7.68 v 1.44 z"
       style=""
       id="path6855" />
    <path
       d="m 2001.3062,3089.9727 c -13.248,1.44 -20.832,3.744 -29.088,12.384 -6.816,7.008 -10.464,16.128 -10.464,26.496 0,6.72 1.824,13.536 4.512,18.432 3.36,6.144 9.408,9.696 16.992,9.696 6.336,0 11.712,-2.592 15.264,-7.008 3.168,-3.84 4.896,-9.216 4.896,-15.36 0,-12.384 -6.912,-20.064 -18.144,-20.064 -4.224,0 -7.488,0.672 -12.192,4.32 2.592,-14.496 13.344,-24.864 28.416,-27.36 z m -6.528,47.616 c 0,9.792 -3.552,16.704 -10.464,16.704 -9.024,0 -13.632,-9.6 -13.632,-24.192 0,-8.832 5.664,-11.136 11.136,-11.136 8.928,0 12.96,6.336 12.96,18.624 z"
       style=""
       id="path6857" />
    <path
       d="m 2063.8982,3138.9327 h -2.496 c -1.536,3.36 -2.784,5.472 -4.032,7.104 -3.264,4.128 -8.448,5.856 -16.224,5.856 h -6.72 c -7.008,0 -8.64,-0.672 -8.64,-4.32 v -44.544 c 0,-7.392 1.152,-8.64 9.024,-9.12 v -1.824 h -27.168 v 1.824 c 7.488,0.576 8.352,1.92 8.352,9.312 v 41.376 c 0,7.296 -1.248,8.832 -8.352,9.216 v 1.824 h 51.648 z"
       style=""
       id="path6859" />
  </g>
  <flowRoot
     xml:space="preserve"
     id="flowRoot6712"
     style="font-size:40px;line-height:25px;font-family:sans-serif;text-align:center;letter-spacing:0px;word-spacing:0px;text-anchor:middle;fill:none;stroke:#000000;stroke-width:1px;stroke-linecap:butt;stroke-linejoin:miter;stroke-opacity:1"
     transform="matrix(0.1,0,0,0.1,-164.71426,-180.97471)"><flowRegion
       id="flowRegion6714"><rect
         id="rect6716"
         width="20.665901"
         height="261.7681"
         x="2121.6992"
         y="1022.9621" /></flowRegion><flowPara
       id="flowPara6718"></flowPara></flowRoot>  <g
     aria-label="C. elegans
Reference"
     transform="matrix(0.1,0,0,0.1,-94.867011,-175.44025)"
     style="font-style:normal;font-variant:normal;font-weight:normal;font-stretch:normal;font-size:96px;line-height:1em;font-family:STIX;-inkscape-font-specification:STIX;text-align:center;letter-spacing:0px;word-spacing:0px;text-anchor:middle;fill:#000000;fill-opacity:1;stroke:none;stroke-width:1px;stroke-linecap:butt;stroke-linejoin:miter;stroke-opacity:1"
     id="flowRoot6648-5-3">
    <path
       d="m 1786.153,2855.0607 c -7.2,6.816 -12.48,9.696 -21.12,9.696 -6.624,0 -12.864,-2.4 -17.088,-6.912 -4.512,-4.896 -6.912,-12.384 -6.912,-22.944 0,-16.608 8.544,-28.32 23.04,-28.32 6.24,0 11.232,2.784 15.456,7.296 2.4,2.592 3.84,5.376 4.992,10.656 h 2.208 l -0.864,-21.792 h -1.92 c -0.576,2.016 -2.208,3.168 -4.032,3.168 -1.632,0 -4.608,-1.152 -6.624,-1.728 -3.84,-1.056 -7.68,-1.44 -11.424,-1.44 -8.928,0 -17.184,3.168 -23.328,9.984 -5.472,6.144 -8.64,14.112 -8.64,23.712 0,9.504 3.36,18.24 9.216,24 5.568,5.472 13.92,8.544 22.656,8.544 11.328,0 20.64,-4.224 26.208,-12.192 z"
       style=""
       id="path6862" />
    <path
       d="m 1808.71,2863.5087 c 0,-2.88 -2.496,-5.472 -5.28,-5.472 -2.976,0 -5.376,2.4 -5.376,5.376 0,2.976 2.304,5.28 5.28,5.28 2.88,0 5.376,-2.4 5.376,-5.184 z"
       style=""
       id="path6864" />
    <path
       d="m 1878.502,2851.8927 c -4.704,7.104 -8.352,10.08 -14.784,10.08 -4.416,0 -7.968,-1.728 -10.656,-5.28 -3.456,-4.608 -3.936,-8.352 -4.416,-15.648 h 29.568 c -0.384,-5.184 -1.344,-8.256 -3.264,-10.944 -3.072,-4.32 -7.392,-6.624 -13.344,-6.624 -12.096,0 -19.872,9.792 -19.872,23.328 0,13.248 6.912,21.792 18.24,21.792 9.6,0 16.32,-5.568 20.064,-16.032 z m -29.664,-13.92 c 1.056,-7.2 4.8,-11.04 10.176,-11.04 6.336,0 8.352,3.264 9.408,11.04 z"
       style=""
       id="path6866" />
    <path
       d="m 1906.5685,2867.6367 v -1.44 c -6.144,-0.384 -7.2,-1.632 -7.2,-6.912 v -56.832 l -0.48,-0.384 c -4.992,1.632 -8.544,2.592 -15.168,4.224 v 1.536 c 1.536,-0.192 2.784,-0.192 3.552,-0.192 3.072,0 4.032,1.536 4.032,6.144 v 45.024 c 0,5.28 -1.344,6.912 -7.392,7.392 v 1.44 z"
       style=""
       id="path6868" />
    <path
       d="m 1947.6895,2851.8927 c -4.704,7.104 -8.352,10.08 -14.784,10.08 -4.416,0 -7.968,-1.728 -10.656,-5.28 -3.456,-4.608 -3.936,-8.352 -4.416,-15.648 h 29.568 c -0.384,-5.184 -1.344,-8.256 -3.264,-10.944 -3.072,-4.32 -7.392,-6.624 -13.344,-6.624 -12.096,0 -19.872,9.792 -19.872,23.328 0,13.248 6.912,21.792 18.24,21.792 9.6,0 16.32,-5.568 20.064,-16.032 z m -29.664,-13.92 c 1.056,-7.2 4.8,-11.04 10.176,-11.04 6.336,0 8.352,3.264 9.408,11.04 z"
       style=""
       id="path6870" />
    <path
       d="m 1996.204,2830.3887 v -3.744 h -7.392 c -1.92,0 -3.36,-0.288 -5.28,-0.96 l -2.112,-0.768 c -2.592,-0.96 -5.184,-1.44 -7.68,-1.44 -8.928,0 -16.032,6.912 -16.032,15.648 0,6.048 2.496,9.696 8.928,12.864 -1.344,1.344 -2.688,2.592 -4.128,3.84 -3.168,2.784 -4.416,4.704 -4.416,6.624 0,2.112 1.056,3.168 5.088,5.088 -6.912,4.992 -9.408,8.16 -9.408,11.712 0,5.088 7.392,9.312 16.608,9.312 6.912,0 14.208,-2.304 19.2,-6.144 3.936,-3.072 5.76,-6.24 5.76,-10.08 0,-5.952 -4.512,-9.984 -11.616,-10.272 l -12.384,-0.576 c -5.184,-0.288 -7.488,-1.056 -7.488,-2.592 0,-1.92 3.168,-5.28 5.76,-6.048 l 1.824,0.192 c 1.728,0.192 3.072,0.288 3.648,0.288 3.36,0 6.912,-1.44 9.984,-3.744 3.456,-2.592 4.992,-6.144 4.992,-11.136 0,-2.784 -0.48,-4.992 -1.824,-8.064 z m -30.528,4.8 c 0,-5.664 2.688,-9.024 7.104,-9.024 2.976,0 5.472,1.632 7.008,4.512 1.824,3.36 2.88,7.68 2.88,11.616 0,5.28 -2.784,8.64 -7.104,8.64 -5.952,0 -9.888,-6.24 -9.888,-15.456 z m 26.976,38.592 c 0,5.568 -7.296,9.312 -18.24,9.312 -8.448,0 -13.92,-2.784 -13.92,-7.008 0,-2.208 0.864,-3.648 4.704,-8.256 3.264,0.672 10.848,1.248 15.552,1.248 8.736,0 11.904,1.152 11.904,4.704 z"
       style=""
       id="path6872" />
    <path
       d="m 2040.391,2861.3007 c -1.632,1.344 -2.592,1.824 -4.128,1.824 -1.728,0 -2.976,-1.92 -2.976,-6.336 v -18.336 c 0,-5.856 -0.384,-7.872 -2.688,-10.656 -2.304,-2.784 -5.952,-4.32 -11.328,-4.32 -4.32,0 -8.352,1.152 -11.04,2.88 -3.36,2.112 -4.896,5.184 -4.896,7.68 0,2.592 2.112,4.416 4.128,4.416 2.496,0 4.416,-2.112 4.416,-3.936 0,-2.016 -0.576,-2.304 -0.576,-4.032 0,-2.592 2.88,-4.704 6.72,-4.704 4.32,0 7.488,2.688 7.488,8.64 v 5.184 c -10.848,4.032 -14.4,5.856 -17.28,7.776 -3.744,2.496 -6.72,6.24 -6.72,11.232 0,6.336 4.128,9.984 10.08,9.984 4.128,0 8.832,-1.248 13.92,-7.008 h 0.096 c 0.48,5.088 2.592,7.008 6.144,7.008 3.264,0 5.76,-0.96 8.64,-4.608 z m -14.88,-5.856 c 0,2.784 -0.576,4.128 -3.36,6.048 -1.632,1.056 -3.648,1.536 -5.568,1.536 -3.744,0 -6.624,-2.304 -6.624,-7.392 0,-2.976 0.96,-5.28 3.264,-7.392 2.4,-2.208 6.336,-4.224 12.288,-6.336 z"
       style=""
       id="path6874" />
    <path
       d="m 2087.0815,2867.6367 v -1.44 c -4.704,-0.48 -5.856,-1.536 -5.856,-6.72 v -21.216 c 0,-9.504 -4.032,-14.784 -11.328,-14.784 -4.416,0 -8.832,2.112 -13.824,7.776 h -0.096 v -7.488 l -0.768,-0.288 c -4.704,1.728 -7.872,2.784 -13.152,4.32 v 1.632 c 0.672,-0.288 1.728,-0.384 2.784,-0.384 2.688,0 3.36,1.536 3.36,6.24 v 23.328 c 0,5.664 -1.056,7.2 -5.952,7.584 v 1.44 h 20.256 v -1.44 c -4.896,-0.384 -6.24,-1.728 -6.24,-5.472 v -26.496 c 4.416,-4.32 6.72,-5.472 9.888,-5.472 4.704,0 7.008,2.88 7.008,9.696 v 19.104 c 0,6.336 -1.152,8.256 -5.952,8.64 l -0.096,1.44 z"
       style=""
       id="path6876" />
    <path
       d="m 2103.4975,2838.7407 c -2.688,-1.632 -4.128,-4.416 -4.128,-6.528 0,-4.512 3.072,-6.528 7.2,-6.528 5.76,0 8.64,3.168 10.848,11.808 h 1.44 l -0.48,-13.056 h -1.056 c -0.768,0.864 -1.152,0.96 -1.536,0.96 -0.672,0 -1.632,-0.288 -2.688,-0.768 -2.016,-0.96 -4.128,-1.056 -6.432,-1.056 -7.872,0 -13.248,4.224 -13.248,11.808 0,4.896 3.552,9.504 11.52,13.92 l 5.184,2.88 c 3.168,1.728 5.088,4.224 5.088,7.2 0,3.936 -3.072,7.104 -7.968,7.104 -6.624,0 -10.176,-4.224 -12.192,-13.536 h -1.536 v 15.072 h 1.248 c 0.576,-0.96 1.152,-1.152 2.304,-1.152 1.056,0 2.112,0.096 4.416,0.864 2.208,0.768 4.992,0.864 7.008,0.864 7.296,0 13.44,-5.568 13.44,-12 0,-5.472 -2.304,-8.064 -8.448,-11.808 z"
       style=""
       id="path6878" />
    <path
       d="m 1797.694,2963.6367 v -1.824 c -4.224,-0.384 -6.24,-0.96 -9.024,-4.512 l -19.2,-24.288 c 12,-1.824 17.376,-7.392 17.376,-15.744 0,-4.224 -1.536,-8.928 -4.704,-11.52 -4.128,-3.36 -10.944,-5.664 -20.064,-5.664 h -26.112 v 1.824 c 7.392,0.576 8.16,1.728 8.16,8.832 v 40.992 c 0,8.448 -0.96,9.504 -8.16,10.08 v 1.824 h 26.496 v -1.824 c -7.392,-0.48 -8.544,-1.632 -8.544,-8.928 v -18.624 l 5.376,-0.192 22.848,29.568 z m -43.776,-55.968 c 0,-3.36 1.632,-4.032 4.896,-4.032 11.904,0 17.568,4.224 17.568,12.864 0,4.8 -2.016,9.024 -5.472,10.944 -4.416,2.4 -7.776,3.072 -16.992,3.264 z"
       style=""
       id="path6880" />
    <path
       d="m 1836.3145,2947.8927 c -4.704,7.104 -8.352,10.08 -14.784,10.08 -4.416,0 -7.968,-1.728 -10.656,-5.28 -3.456,-4.608 -3.936,-8.352 -4.416,-15.648 h 29.568 c -0.384,-5.184 -1.344,-8.256 -3.264,-10.944 -3.072,-4.32 -7.392,-6.624 -13.344,-6.624 -12.096,0 -19.872,9.792 -19.872,23.328 0,13.248 6.912,21.792 18.24,21.792 9.6,0 16.32,-5.568 20.064,-16.032 z m -29.664,-13.92 c 1.056,-7.2 4.8,-11.04 10.176,-11.04 6.336,0 8.352,3.264 9.408,11.04 z"
       style=""
       id="path6882" />
    <path
       d="m 1841.725,2920.4367 v 3.072 h 7.872 v 30.144 c 0,7.008 -1.056,8.16 -7.968,8.544 v 1.44 h 24.96 v -1.44 c -7.872,-0.288 -8.928,-1.344 -8.928,-8.544 v -30.144 h 11.712 v -3.072 h -11.712 v -11.136 c 0,-5.664 1.728,-8.544 5.376,-8.544 2.112,0 3.36,0.96 5.088,3.744 1.536,2.592 2.688,3.456 4.32,3.456 2.304,0 4.032,-1.728 4.032,-3.936 0,-3.456 -4.224,-5.952 -9.984,-5.952 -6.048,0 -11.04,2.592 -13.536,6.912 -2.496,4.32 -3.264,7.776 -3.36,15.456 z"
       style=""
       id="path6884" />
    <path
       d="m 1907.752,2947.8927 c -4.704,7.104 -8.352,10.08 -14.784,10.08 -4.416,0 -7.968,-1.728 -10.656,-5.28 -3.456,-4.608 -3.936,-8.352 -4.416,-15.648 h 29.568 c -0.384,-5.184 -1.344,-8.256 -3.264,-10.944 -3.072,-4.32 -7.392,-6.624 -13.344,-6.624 -12.096,0 -19.872,9.792 -19.872,23.328 0,13.248 6.912,21.792 18.24,21.792 9.6,0 16.32,-5.568 20.064,-16.032 z m -29.664,-13.92 c 1.056,-7.2 4.8,-11.04 10.176,-11.04 6.336,0 8.352,3.264 9.408,11.04 z"
       style=""
       id="path6886" />
    <path
       d="m 1926.5065,2919.6687 -0.48,-0.192 c -5.088,2.016 -8.544,3.36 -14.208,5.184 v 1.536 c 1.344,-0.288 2.208,-0.384 3.36,-0.384 2.4,0 3.264,1.536 3.264,5.76 v 24 c 0,4.8 -0.672,5.472 -6.816,6.624 v 1.44 h 23.04 v -1.44 c -6.528,-0.288 -8.16,-1.728 -8.16,-7.2 v -21.6 c 0,-3.072 4.032,-7.872 6.72,-7.872 0.576,0 1.44,0.48 2.496,1.44 1.536,1.44 2.592,1.92 3.84,1.92 2.304,0 3.744,-1.632 3.744,-4.32 0,-3.168 -2.016,-5.088 -5.28,-5.088 -4.032,0 -6.72,2.112 -11.52,9.024 z"
       style=""
       id="path6888" />
    <path
       d="m 1982.1895,2947.8927 c -4.704,7.104 -8.352,10.08 -14.784,10.08 -4.416,0 -7.968,-1.728 -10.656,-5.28 -3.456,-4.608 -3.936,-8.352 -4.416,-15.648 h 29.568 c -0.384,-5.184 -1.344,-8.256 -3.264,-10.944 -3.072,-4.32 -7.392,-6.624 -13.344,-6.624 -12.096,0 -19.872,9.792 -19.872,23.328 0,13.248 6.912,21.792 18.24,21.792 9.6,0 16.32,-5.568 20.064,-16.032 z m -29.664,-13.92 c 1.056,-7.2 4.8,-11.04 10.176,-11.04 6.336,0 8.352,3.264 9.408,11.04 z"
       style=""
       id="path6890" />
    <path
       d="m 2032.144,2963.6367 v -1.44 c -4.704,-0.48 -5.856,-1.536 -5.856,-6.72 v -21.216 c 0,-9.504 -4.032,-14.784 -11.328,-14.784 -4.416,0 -8.832,2.112 -13.824,7.776 h -0.096 v -7.488 l -0.768,-0.288 c -4.704,1.728 -7.872,2.784 -13.152,4.32 v 1.632 c 0.672,-0.288 1.728,-0.384 2.784,-0.384 2.688,0 3.36,1.536 3.36,6.24 v 23.328 c 0,5.664 -1.056,7.2 -5.952,7.584 v 1.44 h 20.256 v -1.44 c -4.896,-0.384 -6.24,-1.728 -6.24,-5.472 v -26.496 c 4.416,-4.32 6.72,-5.472 9.888,-5.472 4.704,0 7.008,2.88 7.008,9.696 v 19.104 c 0,6.336 -1.152,8.256 -5.952,8.64 l -0.096,1.44 z"
       style=""
       id="path6892" />
    <path
       d="m 2071.792,2948.6607 c -4.608,6.72 -8.064,9.024 -13.536,9.024 -8.832,0 -14.88,-7.68 -14.88,-18.72 0,-9.984 5.28,-16.704 13.056,-16.704 3.456,0 4.704,1.056 5.664,4.608 l 0.576,2.112 c 0.768,2.784 2.496,4.416 4.608,4.416 2.496,0 4.512,-1.824 4.512,-4.032 0,-5.376 -6.72,-9.888 -14.784,-9.888 -4.512,0 -9.12,1.728 -12.96,4.896 -5.184,4.32 -8.064,10.944 -8.064,18.912 0,12.384 7.584,21.312 18.24,21.312 4.128,0 7.776,-1.344 11.04,-4.032 2.88,-2.304 4.8,-5.088 7.872,-11.04 z"
       style=""
       id="path6894" />
    <path
       d="m 2115.3145,2947.8927 c -4.704,7.104 -8.352,10.08 -14.784,10.08 -4.416,0 -7.968,-1.728 -10.656,-5.28 -3.456,-4.608 -3.936,-8.352 -4.416,-15.648 h 29.568 c -0.384,-5.184 -1.344,-8.256 -3.264,-10.944 -3.072,-4.32 -7.392,-6.624 -13.344,-6.624 -12.096,0 -19.872,9.792 -19.872,23.328 0,13.248 6.912,21.792 18.24,21.792 9.6,0 16.32,-5.568 20.064,-16.032 z m -29.664,-13.92 c 1.056,-7.2 4.8,-11.04 10.176,-11.04 6.336,0 8.352,3.264 9.408,11.04 z"
       style=""
       id="path6896" />
  </g>
</svg>
