<?xml version="1.0" encoding="UTF-8" standalone="no"?>
<!-- Created with matplotlib (https://matplotlib.org/) -->

<svg
   xmlns:dc="http://purl.org/dc/elements/1.1/"
   xmlns:cc="http://creativecommons.org/ns#"
   xmlns:rdf="http://www.w3.org/1999/02/22-rdf-syntax-ns#"
   xmlns:svg="http://www.w3.org/2000/svg"
   xmlns="http://www.w3.org/2000/svg"
   xmlns:xlink="http://www.w3.org/1999/xlink"
   xmlns:sodipodi="http://sodipodi.sourceforge.net/DTD/sodipodi-0.dtd"
   xmlns:inkscape="http://www.inkscape.org/namespaces/inkscape"
   height="187.08612pt"
   version="1.1"
   viewBox="0 0 415.58885 187.08612"
   width="415.58884pt"
   id="svg1785"
   sodipodi:docname="test.svg"
   inkscape:version="0.92.4 (unknown)">
  <metadata
     id="metadata1789">
    <rdf:RDF>
      <cc:Work
         rdf:about="">
        <dc:format>image/svg+xml</dc:format>
        <dc:type
           rdf:resource="http://purl.org/dc/dcmitype/StillImage" />
        <dc:title></dc:title>
      </cc:Work>
    </rdf:RDF>
  </metadata>
  <sodipodi:namedview
     pagecolor="#ffffff"
     bordercolor="#666666"
     borderopacity="1"
     objecttolerance="10"
     gridtolerance="10"
     guidetolerance="10"
     inkscape:pageopacity="0"
     inkscape:pageshadow="2"
     inkscape:window-width="1918"
     inkscape:window-height="1058"
     id="namedview1787"
     showgrid="false"
     fit-margin-top="0"
     fit-margin-left="0"
     fit-margin-right="0"
     fit-margin-bottom="0"
     inkscape:zoom="1.1831149"
     inkscape:cx="308.86693"
     inkscape:cy="127.55856"
     inkscape:window-x="1366"
     inkscape:window-y="20"
     inkscape:window-maximized="1"
     inkscape:current-layer="svg1785" />
  <defs
     id="defs1324"
     style="stroke-linecap:butt;stroke-linejoin:round">
    <style
       type="text/css"
       id="style1322">
*{stroke-linecap:butt;stroke-linejoin:round;}
  </style>
    <defs
       id="defs1698">
      <path
         inkscape:connector-curvature="0"
         style="stroke:#595959;stroke-linecap:butt;stroke-linejoin:round"
         id="mba82a90e69"
         d="M 0,1 C 0.265203,1 0.51958,0.894634 0.707107,0.707107 0.894634,0.51958 1,0.265203 1,0 1,-0.265203 0.894634,-0.51958 0.707107,-0.707107 0.51958,-0.894634 0.265203,-1 0,-1 -0.265203,-1 -0.51958,-0.894634 -0.707107,-0.707107 -0.894634,-0.51958 -1,-0.265203 -1,0 -1,0.265203 -0.894634,0.51958 -0.707107,0.707107 -0.51958,0.894634 -0.265203,1 0,1 Z" />
    </defs>
    <defs
       id="defs1373">
      <path
         inkscape:connector-curvature="0"
         style="stroke:#595959;stroke-linecap:butt;stroke-linejoin:round"
         id="m190fedf22d"
         d="M 77.100265,-82.223071 V -82.368 h 2.544232 2.544232 2.544232 2.544232 2.544232 2.544232 2.544232 2.544232 2.544232 2.544237 2.54423 2.54423 2.54423 2.54423 2.54424 2.54423 2.54423 2.54423 2.54423 2.54423 2.54424 2.54423 2.54423 2.54423 2.54423 2.54424 2.54423 2.54423 2.54423 2.54423 2.54424 2.54423 2.54423 2.54423 2.54423 2.54424 2.54423 2.54423 2.54423 2.54423 2.54424 2.54423 2.54423 2.54423 2.54423 2.54424 2.54423 2.54423 2.54423 2.54423 2.54423 2.54424 2.54423 2.54423 2.54423 2.54423 2.54424 2.54423 2.54423 2.54423 2.54423 2.54424 2.54423 2.54423 2.54423 2.54423 2.54424 2.54423 2.54423 2.54423 2.54423 2.54424 2.54423 2.54423 2.54423 2.54424 2.54423 2.54423 2.54423 2.54423 2.54423 2.54424 2.54423 2.54423 2.54423 2.54423 2.54424 2.54423 2.54423 2.54423 2.54423 2.54424 2.54423 2.54423 2.54423 2.54423 2.54424 2.54423 2.54423 v 0.114457 0 l -2.54423,0.115319 -2.54423,0.190194 -2.54424,0.279902 -2.54423,0.365558 -2.54423,0.419773 -2.54423,0.41653 -2.54423,0.343924 -2.54424,0.212204 -2.54423,0.05118 -2.54423,-0.102198 -2.54423,-0.21865 -2.54423,-0.285215 -2.54424,-0.304475 -2.54423,-0.287445 -2.54423,-0.246065 -2.54423,-0.189054 -2.54423,-0.121444 -2.54424,-0.04623 -2.54423,0.03322 -2.54423,0.110674 -2.54423,0.17589 -2.54423,0.215991 -2.54423,0.219812 -2.54424,0.183147 -2.54423,0.111662 -2.54423,0.01966 -2.54423,-0.0743 -2.54424,-0.152224 -2.54423,-0.200372 -2.54423,-0.211791 -2.54423,-0.188065 -2.54423,-0.139432 -2.54424,-0.0818 -2.54423,-0.03091 -2.54423,0.0035 -2.54423,0.01991 -2.54423,0.02259 -2.54424,0.01679 -2.54423,0.0055 -2.54423,-0.01031 -2.54423,-0.02945 -2.54423,-0.04828 -2.54424,-0.06107 -2.54423,-0.0623 -2.54423,-0.04967 -2.54423,-0.02614 -2.54423,2.69e-4 -2.54424,0.01949 -2.54423,0.02454 -2.54423,0.01595 -2.54423,0.0022 -2.54423,-0.0054 -2.54423,4.01e-4 -2.54424,0.01745 -2.54423,0.0363 -2.54423,0.04694 -2.54423,0.04575 -2.54423,0.03747 -2.54424,0.03079 -2.54423,0.03151 -2.54423,0.03823 -2.54423,0.04359 -2.54423,0.03971 -2.54424,0.02391 -2.54423,7.93e-4 -2.54423,-0.01999 -2.54423,-0.0285 -2.54423,-0.01854 -2.54424,0.01117 -2.54423,0.05804 -2.54423,0.116947 -2.54423,0.180135 -2.54423,0.236353 -2.54424,0.271758 -2.54423,0.274542 -2.54423,0.241788 -2.54423,0.18371 -2.54423,0.120633 -2.54424,0.0732 -2.54423,0.05234 -2.54423,0.05658 -2.54423,0.07823 -2.54423,0.111845 -2.54423,0.156245 -2.54424,0.208049 -2.54423,0.25322 -2.54423,0.266127 -2.54423,0.219442 -2.54423,0.09938 -2.544237,-0.08341 -2.544232,-0.293946 -2.544232,-0.484375 -2.544232,-0.611148 -2.544232,-0.65041 -2.544232,-0.604823 -2.544232,-0.499359 -2.544232,-0.368994 -2.544232,-0.245073 z" />
    </defs>
    <defs
       id="defs1365">
      <path
         inkscape:connector-curvature="0"
         style="stroke:#595959;stroke-linecap:butt;stroke-linejoin:round"
         id="m263956ae95"
         d="m 86.968857,-82.368 v -0.319134 l 2.276879,-1.395097 2.276878,-3.639414 2.276878,-5.431517 2.276878,-5.235137 2.276878,-3.513471 2.276882,-1.24173 2.27687,0.25051 2.27688,-0.19419 2.27688,-2.3438 2.27688,-3.6048 2.27688,-3.04966 2.27687,-2.25449 2.27688,-2.03921 2.27688,-1.47046 2.27688,1.33628 2.27688,3.44435 2.27688,2.93132 2.27687,3.73509 2.27688,4.82744 2.27688,1.928215 2.27688,-5.518545 2.27688,-8.83626 2.27687,1.54704 2.27688,11.55499 2.27688,9.346539 2.27688,4.250002 2.27688,1.948651 2.27687,1.136405 2.27688,0.616356 2.27688,0.226388 2.27688,0.109451 2.27688,0.252588 2.27688,0.207143 2.27687,0.03366 2.27688,0.08401 2.27688,0.137697 2.27688,0.02107 2.27688,-0.03593 2.27687,0.0523 2.27688,0.09129 2.27688,0.04389 2.27688,0.0065 2.27688,-0.01844 2.27687,-0.0668 2.27688,-0.08928 2.27688,6.37e-4 2.27688,0.08842 2.27688,0.05482 2.27687,-0.03138 2.27688,-0.09021 2.27688,-0.03532 2.27688,0.07454 2.27688,0.08128 2.27688,0.03003 2.27687,0.0049 2.27688,3.84e-4 2.27688,1.5e-5 h 2.27688 2.27688 2.27687 l 2.27688,-5e-6 2.27688,-1.48e-4 2.27688,-0.0024 2.27688,-0.01852 2.27687,-0.06546 2.27688,-0.09002 2.27688,-0.0024 2.27688,0.08883 2.27688,0.0676 2.27688,0.01974 2.27687,0.0021 2.27688,-0.0065 2.27688,-0.03654 2.27688,-0.087 2.27688,-0.06451 2.27687,0.03777 2.27688,0.03553 2.27688,-0.05017 2.27688,-0.01703 2.27688,0.08084 2.27687,0.07743 2.27688,0.02649 2.27688,0.0025 2.27688,-0.01385 2.27688,-0.05697 2.27687,-0.09566 2.27688,-0.04314 2.27688,0.0084 2.27688,-0.04481 2.27688,-0.115827 2.27688,-0.187814 2.27687,-0.09682 2.27688,-0.02003 2.27688,-0.427806 2.27688,-0.624464 2.27688,0.115007 2.27687,0.764377 2.27688,0.587017 2.27688,0.209091 v 0.04535 0 h -2.27688 -2.27688 -2.27687 -2.27688 -2.27688 -2.27688 -2.27688 -2.27687 -2.27688 -2.27688 -2.27688 -2.27688 -2.27688 -2.27687 -2.27688 -2.27688 -2.27688 -2.27688 -2.27687 -2.27688 -2.27688 -2.27688 -2.27688 -2.27687 -2.27688 -2.27688 -2.27688 -2.27688 -2.27687 -2.27688 -2.27688 -2.27688 -2.27688 -2.27688 -2.27687 -2.27688 -2.27688 -2.27688 -2.27688 -2.27687 -2.27688 -2.27688 -2.27688 -2.27688 -2.27687 -2.27688 -2.27688 -2.27688 -2.27688 -2.27688 -2.27687 -2.27688 -2.27688 -2.27688 -2.27688 -2.27687 -2.27688 -2.27688 -2.27688 -2.27688 -2.27687 -2.27688 -2.27688 -2.27688 -2.27688 -2.27687 -2.27688 -2.27688 -2.27688 -2.27688 -2.27688 -2.27687 -2.27688 -2.27688 -2.27688 -2.27688 -2.27687 -2.27688 -2.27688 -2.27688 -2.27688 -2.27687 -2.27688 -2.27688 -2.27688 -2.27688 -2.27688 -2.27687 -2.27688 -2.27688 -2.27688 -2.27688 -2.27687 -2.276882 -2.276878 -2.276878 -2.276878 -2.276878 z" />
    </defs>
    <defs
       id="defs1357">
      <path
         inkscape:connector-curvature="0"
         style="stroke:#595959;stroke-linecap:butt;stroke-linejoin:round"
         id="m1b287aba9e"
         d="m 79.428768,-169.69505 v -1.37695 h 2.613765 2.613765 2.613766 2.613765 2.613765 2.613765 2.613765 2.613766 2.61376 2.61377 2.61376 2.61377 2.61376 2.61377 2.61376 2.61377 2.61376 2.61377 2.61376 2.61377 2.61376 2.61377 2.61376 2.61377 2.61376 2.61377 2.61376 2.61377 2.61376 2.61377 2.61376 2.61377 2.61376 2.61377 2.61377 2.61376 2.61377 2.61376 2.61377 2.61376 2.61377 2.61376 2.61377 2.61376 2.61377 2.61376 2.61377 2.61376 2.61377 2.61376 2.61377 2.61376 2.61377 2.61376 2.61377 2.61376 2.61377 2.61376 2.61377 2.61376 2.61377 2.61376 2.61377 2.61376 2.61377 2.61376 2.61377 2.61376 2.61377 2.61376 2.61377 2.61376 2.61377 2.61376 2.61377 2.61376 2.61377 2.61376 2.61377 2.61376 2.61377 2.61376 2.61377 2.61376 2.61377 2.61376 2.61377 2.61376 2.61377 2.61376 2.61377 2.61376 2.61377 2.61376 2.61377 2.61376 2.61377 2.61376 2.61377 v 0.0937 0 l -2.61377,0.11345 -2.61376,0.19426 -2.61377,0.29131 -2.61376,0.39369 -2.61377,0.49459 -2.61376,0.58459 -2.61377,0.63301 -2.61376,0.5877 -2.61377,0.41681 -2.61376,0.16098 -2.61377,-0.0708 -2.61376,-0.17888 -2.61377,-0.1543 -2.61376,-0.0774 -2.61377,-0.0372 -2.61376,-0.0554 -2.61377,-0.086 -2.61376,-0.0753 -2.61377,-0.0175 -2.61376,0.0464 -2.61377,0.0874 -2.61376,0.14446 -2.61377,0.30812 -2.61376,0.61761 -2.61377,0.96349 -2.61376,1.11355 -2.61377,0.87699 -2.61376,0.27721 -2.61377,-0.42725 -2.61376,-0.90604 -2.61377,-0.97395 -2.61376,-0.69202 -2.61377,-0.29621 -2.61376,-0.0319 -2.61377,-0.0149 -2.61376,-0.1916 -2.61377,-0.40199 -2.61376,-0.49307 -2.61377,-0.40607 -2.61376,-0.18584 -2.61377,0.0756 -2.61376,0.30128 -2.61377,0.45062 -2.61376,0.50774 -2.61377,0.47568 -2.61376,0.38858 -2.61377,0.31436 -2.61376,0.31982 -2.61377,0.41276 -2.61376,0.51673 -2.61377,0.52137 -2.61376,0.37592 -2.61377,0.13299 -2.61376,-0.10533 -2.61377,-0.27606 -2.61376,-0.37971 -2.61377,-0.42896 -2.61376,-0.39817 -2.61377,-0.23098 -2.61376,0.11684 -2.61377,0.64468 -2.61376,1.2842 -2.61377,1.87403 -2.61376,2.17401 -2.61377,1.97826 -2.61377,1.27873 -2.61376,0.3215 -2.61377,-0.52941 -2.61376,-1.00833 -2.61377,-1.06386 -2.61376,-0.82091 -2.61377,-0.46514 -2.61376,-0.14359 -2.61377,0.0713 -2.61376,0.16279 -2.61377,0.14534 -2.61376,0.0605 -2.61377,-0.0396 -2.61376,-0.12879 -2.61377,-0.21018 -2.61376,-0.25547 -2.61377,-0.16041 -2.61376,0.20216 -2.61377,0.87546 -2.61376,1.7747 -2.61377,2.7383 -2.61376,3.59623 -2.61377,4.18148 -2.61376,4.29499 -2.61377,3.69222 -2.61376,2.16436 -2.613766,-0.2645 -2.613765,-3.14005 -2.613765,-5.6213 -2.613765,-6.88195 -2.613765,-6.6164 -2.613766,-5.2083 -2.613765,-3.41534 z" />
    </defs>
    <defs
       id="defs1349">
      <path
         inkscape:connector-curvature="0"
         style="stroke:#595959;stroke-linecap:butt;stroke-linejoin:round"
         id="m44a2bcf537"
         d="m 84.161484,-171.072 v -0.55131 l 2.518169,-1.41093 2.518169,-3.12242 2.518169,-4.68167 2.518169,-4.5586 2.51817,-2.54132 2.518169,-0.36159 2.518171,0.35601 2.51817,-0.35107 2.51817,-1.4088 2.51817,-2.13774 2.51816,-2.8863 2.51817,-3.86478 2.51817,-4.0966 2.51817,-2.83997 2.51817,-1.02451 2.51817,0.004 2.51817,0.39175 2.51817,1.17585 2.51817,2.27014 2.51817,2.7533 2.51817,2.35321 2.51816,1.32313 2.51817,-0.0845 2.51817,-1.68259 2.51817,-2.70895 2.51817,-1.21947 2.51817,3.11156 2.51817,6.80336 2.51817,7.02116 2.51817,4.94063 2.51817,2.59166 2.51817,0.35318 2.51816,-2.25022 2.51817,-5.30122 2.51817,-7.10839 2.51817,-4.70521 2.51817,1.4939 2.51817,6.18205 2.51817,6.14792 2.51817,3.97778 2.51817,2.62884 2.51817,2.02482 2.51817,1.31997 2.51816,0.5622 2.51817,0.0569 2.51817,-0.22465 2.51817,-0.39561 2.51817,-0.45385 2.51817,-0.41653 2.51817,-0.27144 2.51817,0.0184 2.51817,0.255 2.51817,0.2465 2.51817,0.24573 2.51817,0.47831 2.51816,0.65974 2.51817,0.53199 2.51817,0.25302 2.51817,0.0294 2.51817,-0.11997 2.51817,-0.19823 2.51817,-0.13775 2.51817,0.0432 2.51817,0.17023 2.51817,0.11882 2.51817,-0.0545 2.51816,-0.21948 2.51817,-0.32596 2.51817,-0.48856 2.51817,-0.77506 2.51817,-0.87065 2.51817,-0.42116 2.51817,0.32593 2.51817,0.78541 2.51817,0.71019 2.51817,0.31573 2.51817,0.0239 2.51817,0.0292 2.51816,0.0703 2.51817,-0.12597 2.51817,-0.35209 2.51817,-0.23552 2.51817,0.1413 2.51817,0.39947 2.51817,0.43479 2.51817,0.37094 2.51817,0.25574 2.51817,0.0926 2.51817,-0.0948 2.51816,-0.27237 2.51817,-0.35189 2.51817,-0.25959 2.51817,-0.10068 2.51817,-0.053 2.51817,-0.051 2.51817,0.11439 2.51817,0.36189 2.51817,0.42085 2.51817,0.27471 v 0.14773 0 h -2.51817 -2.51817 -2.51817 -2.51817 -2.51817 -2.51817 -2.51817 -2.51817 -2.51817 -2.51816 -2.51817 -2.51817 -2.51817 -2.51817 -2.51817 -2.51817 -2.51817 -2.51817 -2.51817 -2.51817 -2.51816 -2.51817 -2.51817 -2.51817 -2.51817 -2.51817 -2.51817 -2.51817 -2.51817 -2.51817 -2.51817 -2.51817 -2.51816 -2.51817 -2.51817 -2.51817 -2.51817 -2.51817 -2.51817 -2.51817 -2.51817 -2.51817 -2.51817 -2.51816 -2.51817 -2.51817 -2.51817 -2.51817 -2.51817 -2.51817 -2.51817 -2.51817 -2.51817 -2.51817 -2.51817 -2.51816 -2.51817 -2.51817 -2.51817 -2.51817 -2.51817 -2.51817 -2.51817 -2.51817 -2.51817 -2.51817 -2.51816 -2.51817 -2.51817 -2.51817 -2.51817 -2.51817 -2.51817 -2.51817 -2.51817 -2.51817 -2.51817 -2.51816 -2.51817 -2.51817 -2.51817 -2.51817 -2.51817 -2.51817 -2.51817 -2.51817 -2.51817 -2.51817 -2.51816 -2.51817 -2.51817 -2.51817 -2.518171 -2.518169 -2.51817 -2.518169 -2.518169 -2.518169 z" />
    </defs>
    <defs
       id="defs1341">
      <path
         inkscape:connector-curvature="0"
         style="stroke:#595959;stroke-linecap:butt;stroke-linejoin:round"
         id="m7121a0e9ad"
         d="m 83.294364,-258.65576 v -1.12024 h 3.068221 3.068221 3.068221 3.068221 3.068221 3.068221 3.06822 3.06822 3.06822 3.06822 3.06822 3.06823 3.06822 3.06822 3.06822 3.06822 3.06822 3.06822 3.06822 3.06822 3.06822 3.06822 3.06823 3.06822 3.06822 3.06822 3.06822 3.06822 3.06822 3.06822 3.06822 3.06822 3.06822 3.06823 3.06822 3.06822 3.06822 3.06822 3.06822 3.06822 3.06822 3.06822 3.06822 3.06822 3.06823 3.06822 3.06822 3.06822 3.06822 3.06822 3.06822 3.06822 3.06822 3.06822 3.06823 3.06822 3.06822 3.06822 3.06822 3.06822 3.06822 3.06822 3.06822 3.06822 3.06822 3.06823 3.06822 3.06822 3.06822 3.06822 3.06822 3.06822 3.06822 3.06822 3.06822 3.06822 3.06823 3.06822 3.06822 3.06822 3.06822 3.06822 3.06822 3.06822 3.06822 3.06822 3.06823 3.06822 3.06822 3.06822 3.06822 3.06822 3.06822 3.06822 3.06822 3.06822 3.06822 3.06823 3.06822 v 0.0248 0 l -3.06822,0.0588 -3.06823,0.10234 -3.06822,0.0971 -3.06822,0.0383 -3.06822,-5.9e-4 -3.06822,0.007 -3.06822,0.007 -3.06822,-0.01 -3.06822,-0.01 -3.06822,-0.0108 -3.06822,-0.0192 -3.06822,-0.002 -3.06823,0.009 -3.06822,-0.0166 -3.06822,-0.0226 -3.06822,0.0365 -3.06822,0.12077 -3.06822,0.13615 -3.06822,0.0428 -3.06822,-0.0484 -3.06822,-0.0535 -3.06822,-0.0663 -3.06823,-0.12246 -3.06822,-0.11856 -3.06822,-0.0484 -3.06822,-0.008 -3.06822,-0.0143 -3.06822,-0.0231 -3.06822,-0.0224 -3.06822,-0.0142 -3.06822,0.005 -3.06822,0.0196 -3.06822,0.0127 -3.06823,-0.007 -3.06822,-0.0164 -3.06822,-0.003 -3.06822,0.0228 -3.06822,0.0405 -3.06822,0.0423 -3.06822,0.0313 -3.06822,0.0369 -3.06822,0.0731 -3.06822,0.0786 -3.06822,0.018 -3.06823,-0.0411 -3.06822,-0.032 -3.06822,0.0319 -3.06822,0.0765 -3.06822,0.0381 -3.06822,-0.0483 -3.06822,-0.0869 -3.06822,-0.0568 -3.06822,0.006 -3.06822,0.0907 -3.06823,0.16297 -3.06822,0.12954 -3.06822,-0.0308 -3.06822,-0.16828 -3.06822,-0.16363 -3.06822,-0.0838 -3.06822,-0.0174 -3.06822,0.0313 -3.06822,0.0611 -3.06822,0.0557 -3.06822,0.0159 -3.06823,-0.0362 -3.06822,-0.0656 -3.06822,-0.0589 -3.06822,-0.034 -3.06822,-0.011 -3.06822,0.0145 -3.06822,0.0474 -3.06822,0.0577 -3.06822,0.0233 -3.06822,-0.0122 -3.06822,0.0174 -3.06823,0.1116 -3.06822,0.21244 -3.06822,0.30369 -3.06822,0.43565 -3.06822,0.63864 -3.06822,0.87375 -3.06822,1.09308 -3.06822,1.29727 -3.06822,1.57452 -3.06822,2.06478 -3.06822,2.58838 -3.06823,2.79775 -3.06822,3.00086 -3.06822,3.63771 -3.06822,4.31321 -3.06822,4.50869 -3.06822,3.98308 -3.068221,1.72723 -3.068221,-3.36077 -3.068221,-9.14484 -3.068221,-10.87924 -3.068221,-7.63148 z" />
    </defs>
    <defs
       id="defs1333">
      <path
         inkscape:connector-curvature="0"
         style="stroke:#595959;stroke-linecap:butt;stroke-linejoin:round"
         id="ma9156f0b5a"
         d="m 73.832727,-259.776 v -0.0684 l 3.279339,-0.0783 3.279339,-0.13637 3.279339,-0.21042 3.279339,-0.28851 3.279338,-0.35245 3.279339,-0.38418 3.279339,-0.372 3.279341,-0.31338 3.27934,-0.21468 3.27934,-0.0908 3.27934,0.0359 3.27933,0.14051 3.27934,0.2058 3.27934,0.23074 3.27934,0.22977 3.27934,0.22239 3.27934,0.22065 3.27934,0.22379 3.27933,0.22202 3.27934,0.20499 3.27934,0.16889 3.27934,0.11842 3.27934,0.0642 3.27934,0.0179 3.27934,-0.0119 3.27934,-0.0225 3.27934,-0.0168 3.27933,-0.001 3.27934,0.0164 3.27934,0.0312 3.27934,0.0399 3.27934,0.0415 3.27934,0.0366 3.27934,0.0263 3.27934,0.0127 3.27934,-0.002 3.27933,-0.0154 3.27934,-0.0254 3.27934,-0.0301 3.27934,-0.0283 3.27934,-0.021 3.27934,-0.0111 3.27934,-0.003 3.27934,-0.002 3.27933,-0.0105 3.27934,-0.027 3.27934,-0.0467 3.27934,-0.0626 3.27934,-0.0681 3.27934,-0.0603 3.27934,-0.0409 3.27934,-0.0156 3.27934,0.008 3.27933,0.0231 3.27934,0.0272 3.27934,0.0217 3.27934,0.0116 3.27934,0.004 3.27934,0.004 3.27934,0.0129 3.27934,0.0264 3.27934,0.0384 3.27933,0.0439 3.27934,0.0414 3.27934,0.0326 3.27934,0.0208 3.27934,0.009 3.27934,1.6e-4 3.27934,-0.004 3.27934,-0.004 3.27934,-0.002 3.27933,-0.004 3.27934,-0.0137 3.27934,-0.0327 3.27934,-0.0541 3.27934,-0.0666 3.27934,-0.0609 3.27934,-0.0364 3.27934,-0.003 3.27934,0.027 3.27933,0.0431 3.27934,0.0449 3.27934,0.0375 3.27934,0.0256 3.27934,0.0117 3.27934,-0.003 3.27934,-0.0163 3.27933,-0.0232 3.27934,-0.0197 3.27934,-0.005 3.27934,0.016 3.27934,0.0378 3.27934,0.0538 3.27934,0.0602 3.27934,0.0572 3.27934,0.0475 3.27933,0.0349 3.27934,0.0228 3.27934,0.0133 v 0.0121 0 h -3.27934 -3.27934 -3.27933 -3.27934 -3.27934 -3.27934 -3.27934 -3.27934 -3.27934 -3.27934 -3.27934 -3.27933 -3.27934 -3.27934 -3.27934 -3.27934 -3.27934 -3.27934 -3.27933 -3.27934 -3.27934 -3.27934 -3.27934 -3.27934 -3.27934 -3.27934 -3.27934 -3.27933 -3.27934 -3.27934 -3.27934 -3.27934 -3.27934 -3.27934 -3.27934 -3.27934 -3.27933 -3.27934 -3.27934 -3.27934 -3.27934 -3.27934 -3.27934 -3.27934 -3.27934 -3.27933 -3.27934 -3.27934 -3.27934 -3.27934 -3.27934 -3.27934 -3.27934 -3.27934 -3.27933 -3.27934 -3.27934 -3.27934 -3.27934 -3.27934 -3.27934 -3.27934 -3.27933 -3.27934 -3.27934 -3.27934 -3.27934 -3.27934 -3.27934 -3.27934 -3.27934 -3.27933 -3.27934 -3.27934 -3.27934 -3.27934 -3.27934 -3.27934 -3.27934 -3.27934 -3.27933 -3.27934 -3.27934 -3.27934 -3.27934 -3.27934 -3.27934 -3.27933 -3.27934 -3.27934 -3.27934 -3.279341 -3.279339 -3.279339 -3.279338 -3.279339 -3.279339 -3.279339 z" />
    </defs>
  </defs>
  <g
     style="stroke-linecap:butt;stroke-linejoin:round"
     id="g1337"
     clip-path="url(#p6646cf23f6)"
     transform="translate(16.601563,-82.024782)">
    <use
       height="100%"
       width="100%"
       id="use1335"
       y="345.60001"
       xlink:href="#ma9156f0b5a"
       x="0"
       style="fill:#72b6a1;stroke:#595959;stroke-linecap:butt;stroke-linejoin:round" />
  </g>
  <g
     style="stroke-linecap:butt;stroke-linejoin:round"
     id="g1345"
     clip-path="url(#p6646cf23f6)"
     transform="translate(16.601563,-82.024782)">
    <use
       height="100%"
       width="100%"
       id="use1343"
       y="345.60001"
       xlink:href="#m7121a0e9ad"
       x="0"
       style="fill:#e99675;stroke:#595959;stroke-linecap:butt;stroke-linejoin:round" />
  </g>
  <g
     style="stroke-linecap:butt;stroke-linejoin:round"
     id="g1353"
     clip-path="url(#p6646cf23f6)"
     transform="translate(16.601563,-82.024782)">
    <use
       height="100%"
       width="100%"
       id="use1351"
       y="345.60001"
       xlink:href="#m44a2bcf537"
       x="0"
       style="fill:#72b6a1;stroke:#595959;stroke-linecap:butt;stroke-linejoin:round" />
  </g>
  <g
     style="stroke-linecap:butt;stroke-linejoin:round"
     id="g1361"
     clip-path="url(#p6646cf23f6)"
     transform="translate(16.601563,-82.024782)">
    <use
       height="100%"
       width="100%"
       id="use1359"
       y="345.60001"
       xlink:href="#m1b287aba9e"
       x="0"
       style="fill:#e99675;stroke:#595959;stroke-linecap:butt;stroke-linejoin:round" />
  </g>
  <g
     style="stroke-linecap:butt;stroke-linejoin:round"
     id="g1369"
     clip-path="url(#p6646cf23f6)"
     transform="translate(16.601563,-82.024782)">
    <use
       height="100%"
       width="100%"
       id="use1367"
       y="345.60001"
       xlink:href="#m263956ae95"
       x="0"
       style="fill:#72b6a1;stroke:#595959;stroke-linecap:butt;stroke-linejoin:round" />
  </g>
  <g
     style="stroke-linecap:butt;stroke-linejoin:round"
     id="g1377"
     clip-path="url(#p6646cf23f6)"
     transform="translate(16.601563,-82.024782)">
    <use
       height="100%"
       width="100%"
       id="use1375"
       y="345.60001"
       xlink:href="#m190fedf22d"
       x="0"
       style="fill:#e99675;stroke:#595959;stroke-linecap:butt;stroke-linejoin:round" />
  </g>
  <path
     inkscape:connector-curvature="0"
     id="path1380"
     style="fill:#72b6a1;stroke:#595959;stroke-width:0.5;stroke-linecap:butt;stroke-linejoin:miter"
     d="M -67.761755,85.824 Z"
     clip-path="url(#p6646cf23f6)"
     transform="translate(16.601563,-82.024782)" />
  <path
     inkscape:connector-curvature="0"
     id="path1383"
     style="fill:#e99675;stroke:#595959;stroke-width:0.5;stroke-linecap:butt;stroke-linejoin:miter"
     d="M -67.761755,85.824 Z"
     clip-path="url(#p6646cf23f6)"
     transform="translate(16.601563,-82.024782)" />
  <g
     id="g3863"
     transform="translate(31.601563,-82.024782)"
     style="stroke-linecap:butt;stroke-linejoin:round">
    <g
       style="stroke-linecap:butt;stroke-linejoin:round"
       id="text_10">
      <!-- H. sapiens -->
      <defs
         id="defs1543">
        <path
           style="stroke-linecap:butt;stroke-linejoin:round"
           inkscape:connector-curvature="0"
           id="DejaVuSans-72"
           d="m 9.8125,72.90625 h 9.859375 V 43.015625 h 35.84375 V 72.90625 H 65.375 V 0 H 55.515625 V 34.71875 H 19.671875 V 0 H 9.8125 Z" />
        <path
           style="stroke-linecap:butt;stroke-linejoin:round"
           inkscape:connector-curvature="0"
           id="DejaVuSans-46"
           d="M 10.6875,12.40625 H 21 V 0 H 10.6875 Z" />
        <path
           style="stroke-linecap:butt;stroke-linejoin:round"
           inkscape:connector-curvature="0"
           d=""
           id="DejaVuSans-32" />
        <path
           style="stroke-linecap:butt;stroke-linejoin:round"
           inkscape:connector-curvature="0"
           id="DejaVuSans-115"
           d="m 44.28125,53.078125 v -8.5 Q 40.484375,46.53125 36.375,47.5 q -4.09375,0.984375 -8.5,0.984375 -6.6875,0 -10.03125,-2.046875 Q 14.5,44.390625 14.5,40.28125 q 0,-3.125 2.390625,-4.90625 2.390625,-1.78125 9.625,-3.390625 l 3.078125,-0.6875 Q 39.15625,29.25 43.1875,25.515625 47.21875,21.78125 47.21875,15.09375 q 0,-7.625 -6.03125,-12.078125 -6.03125,-4.4375 -16.578125,-4.4375 -4.390625,0 -9.15625,0.859375 Q 10.6875,0.296875 5.421875,2 v 9.28125 q 4.984375,-2.59375 9.8125,-3.890625 4.828125,-1.28125 9.578125,-1.28125 6.34375,0 9.75,2.171875 3.421875,2.171875 3.421875,6.125 0,3.65625 -2.46875,5.609375 -2.453125,1.953125 -10.8125,3.765625 l -3.125,0.734375 q -8.34375,1.75 -12.0625,5.390625 -3.703125,3.640625 -3.703125,9.984375 0,7.71875 5.46875,11.90625 Q 16.75,56 26.8125,56 q 4.96875,0 9.359375,-0.734375 4.40625,-0.71875 8.109375,-2.1875 z" />
        <path
           style="stroke-linecap:butt;stroke-linejoin:round"
           inkscape:connector-curvature="0"
           id="DejaVuSans-97"
           d="m 34.28125,27.484375 q -10.890625,0 -15.09375,-2.484375 -4.203125,-2.484375 -4.203125,-8.5 0,-4.78125 3.15625,-7.59375 3.15625,-2.796875 8.5625,-2.796875 7.484375,0 12,5.296875 4.515625,5.296875 4.515625,14.078125 v 2 z m 17.921875,3.71875 V 0 H 43.21875 v 8.296875 q -3.078125,-4.96875 -7.671875,-7.34375 -4.59375,-2.375 -11.234375,-2.375 -8.390625,0 -13.359375,4.71875 Q 6,8.015625 6,15.921875 q 0,9.21875 6.171875,13.90625 6.1875,4.6875 18.4375,4.6875 H 43.21875 v 0.890625 q 0,6.203125 -4.078125,9.59375 -4.078125,3.390625 -11.453125,3.390625 -4.6875,0 -9.140625,-1.125 -4.4375,-1.125 -8.53125,-3.375 v 8.3125 q 4.921875,1.90625 9.5625,2.84375 Q 24.21875,56 28.609375,56 q 11.875,0 17.734375,-6.15625 5.859375,-6.140625 5.859375,-18.640625 z" />
        <path
           style="stroke-linecap:butt;stroke-linejoin:round"
           inkscape:connector-curvature="0"
           id="DejaVuSans-112"
           d="m 18.109375,8.203125 v -29 H 9.078125 V 54.6875 h 9.03125 v -8.296875 q 2.84375,4.875 7.15625,7.234375 Q 29.59375,56 35.59375,56 q 9.96875,0 16.1875,-7.90625 6.234375,-7.90625 6.234375,-20.796875 0,-12.890625 -6.234375,-20.8125 -6.21875,-7.90625 -16.1875,-7.90625 -6,0 -10.328125,2.375 -4.3125,2.375 -7.15625,7.25 z M 48.6875,27.296875 q 0,9.90625 -4.078125,15.546875 -4.078125,5.640625 -11.203125,5.640625 -7.140625,0 -11.21875,-5.640625 -4.078125,-5.640625 -4.078125,-15.546875 0,-9.90625 4.078125,-15.546875 4.078125,-5.640625 11.21875,-5.640625 7.125,0 11.203125,5.640625 4.078125,5.640625 4.078125,15.546875 z" />
        <path
           style="stroke-linecap:butt;stroke-linejoin:round"
           inkscape:connector-curvature="0"
           id="DejaVuSans-105"
           d="M 9.421875,54.6875 H 18.40625 V 0 H 9.421875 Z m 0,21.296875 H 18.40625 V 64.59375 H 9.421875 Z" />
      </defs>
      <g
         style="stroke-linecap:butt;stroke-linejoin:round"
         id="g1565"
         transform="matrix(0.1,0,0,-0.1,-1.439062,89.623219)">
        <use
           height="100%"
           width="100%"
           y="0"
           x="0"
           style="stroke-linecap:butt;stroke-linejoin:round"
           id="use1545"
           xlink:href="#DejaVuSans-72" />
        <use
           height="100%"
           width="100%"
           y="0"
           style="stroke-linecap:butt;stroke-linejoin:round"
           id="use1547"
           xlink:href="#DejaVuSans-46"
           x="75.179688" />
        <use
           height="100%"
           width="100%"
           y="0"
           style="stroke-linecap:butt;stroke-linejoin:round"
           id="use1549"
           xlink:href="#DejaVuSans-32"
           x="106.9668" />
        <use
           height="100%"
           width="100%"
           y="0"
           style="stroke-linecap:butt;stroke-linejoin:round"
           id="use1551"
           xlink:href="#DejaVuSans-115"
           x="138.75391" />
        <use
           height="100%"
           width="100%"
           y="0"
           style="stroke-linecap:butt;stroke-linejoin:round"
           id="use1553"
           xlink:href="#DejaVuSans-97"
           x="190.85352" />
        <use
           height="100%"
           width="100%"
           y="0"
           style="stroke-linecap:butt;stroke-linejoin:round"
           id="use1555"
           xlink:href="#DejaVuSans-112"
           x="252.13281" />
        <use
           height="100%"
           width="100%"
           y="0"
           style="stroke-linecap:butt;stroke-linejoin:round"
           id="use1557"
           xlink:href="#DejaVuSans-105"
           x="315.60938" />
        <path
           d="m 399.5957,29.59375 v -4.390625 h -41.3125 q 0.59375,-9.28125 5.59375,-14.140625 5,-4.859375 13.9375,-4.859375 5.17188,0 10.03125,1.265625 4.85938,1.265625 9.65625,3.8125 v -8.5 q -4.84375,-2.046875 -9.92187,-3.125 -5.07813,-1.078125 -10.29688,-1.078125 -13.09375,0 -20.73437,7.609375 -7.64063,7.625 -7.64063,20.625 0,13.421875 7.25,21.296875 Q 363.4082,56 375.7207,56 q 11.03125,0 17.45313,-7.109375 6.42187,-7.09375 6.42187,-19.296875 z m -8.98437,2.640625 q -0.0937,7.359375 -4.125,11.75 -4.03125,4.40625 -10.67188,4.40625 -7.51562,0 -12.03125,-4.25 -4.51562,-4.25 -5.20312,-11.96875 z"
           id="use1559"
           inkscape:connector-curvature="0"
           style="stroke-linecap:butt;stroke-linejoin:round" />
        <path
           d="M 459.80664,33.015625 V 0 h -8.98437 v 32.71875 q 0,7.765625 -3.03125,11.609375 -3.03125,3.859375 -9.07813,3.859375 -7.28125,0 -11.48437,-4.640625 -4.20313,-4.625 -4.20313,-12.640625 V 0 h -9.03125 v 54.6875 h 9.03125 v -8.5 q 3.23438,4.9375 7.59375,7.375 4.375,2.4375 10.09375,2.4375 9.42188,0 14.25,-5.828125 4.84375,-5.828125 4.84375,-17.15625 z"
           id="use1561"
           inkscape:connector-curvature="0"
           style="stroke-linecap:butt;stroke-linejoin:round" />
        <use
           height="100%"
           width="100%"
           y="0"
           style="stroke-linecap:butt;stroke-linejoin:round"
           id="use1563"
           xlink:href="#DejaVuSans-115"
           x="468.29492" />
      </g>
    </g>
    <g
       style="stroke-linecap:butt;stroke-linejoin:round"
       id="text_11">
      <!-- D. melanogaster -->
      <defs
         id="defs1578">
        <path
           style="stroke-linecap:butt;stroke-linejoin:round"
           inkscape:connector-curvature="0"
           id="DejaVuSans-68"
           d="M 19.671875,64.796875 V 8.109375 H 31.59375 q 15.09375,0 22.09375,6.828125 7,6.84375 7,21.59375 0,14.640625 -7,21.453125 -7,6.8125 -22.09375,6.8125 z M 9.8125,72.90625 h 20.265625 q 21.1875,0 31.09375,-8.8125 9.921875,-8.8125 9.921875,-27.5625 0,-18.859375 -9.96875,-27.703125 Q 51.171875,0 30.078125,0 H 9.8125 Z" />
        <path
           style="stroke-linecap:butt;stroke-linejoin:round"
           inkscape:connector-curvature="0"
           id="DejaVuSans-109"
           d="M 52,44.1875 Q 55.375,50.25 60.0625,53.125 64.75,56 71.09375,56 q 8.546875,0 13.1875,-5.984375 4.640625,-5.96875 4.640625,-17 V 0 h -9.03125 v 32.71875 q 0,7.859375 -2.796875,11.65625 -2.78125,3.8125 -8.484375,3.8125 -6.984375,0 -11.046875,-4.640625 -4.046875,-4.625 -4.046875,-12.640625 V 0 h -9.03125 v 32.71875 q 0,7.90625 -2.78125,11.6875 -2.78125,3.78125 -8.59375,3.78125 -6.890625,0 -10.953125,-4.65625 -4.046875,-4.65625 -4.046875,-12.625 V 0 h -9.03125 v 54.6875 h 9.03125 v -8.5 q 3.078125,5.03125 7.375,7.421875 Q 29.78125,56 35.6875,56 41.65625,56 45.828125,52.96875 50,49.953125 52,44.1875 Z" />
        <path
           style="stroke-linecap:butt;stroke-linejoin:round"
           inkscape:connector-curvature="0"
           id="DejaVuSans-116"
           d="M 18.3125,70.21875 V 54.6875 h 18.5 v -6.984375 h -18.5 v -29.6875 q 0,-6.6875 1.828125,-8.59375 1.828125,-1.90625 7.453125,-1.90625 H 36.8125 V 0 H 27.59375 Q 17.1875,0 13.234375,3.875 9.28125,7.765625 9.28125,18.015625 v 29.6875 H 2.6875 V 54.6875 h 6.59375 v 15.53125 z" />
        <path
           style="stroke-linecap:butt;stroke-linejoin:round"
           inkscape:connector-curvature="0"
           id="DejaVuSans-114"
           d="m 41.109375,46.296875 q -1.515625,0.875 -3.296875,1.28125 Q 36.03125,48 33.890625,48 26.265625,48 22.1875,43.046875 18.109375,38.09375 18.109375,28.8125 V 0 h -9.03125 v 54.6875 h 9.03125 v -8.5 q 2.84375,4.984375 7.375,7.390625 Q 30.03125,56 36.53125,56 q 0.921875,0 2.046875,-0.125 1.125,-0.109375 2.484375,-0.359375 z" />
      </defs>
      <g
         style="stroke-linecap:butt;stroke-linejoin:round"
         id="g1610"
         transform="matrix(0.1,0,0,-0.1,-32.582813,178.32722)">
        <use
           height="100%"
           width="100%"
           y="0"
           x="0"
           style="stroke-linecap:butt;stroke-linejoin:round"
           id="use1580"
           xlink:href="#DejaVuSans-68" />
        <use
           height="100%"
           width="100%"
           y="0"
           style="stroke-linecap:butt;stroke-linejoin:round"
           id="use1582"
           xlink:href="#DejaVuSans-46"
           x="77.001953" />
        <use
           height="100%"
           width="100%"
           y="0"
           style="stroke-linecap:butt;stroke-linejoin:round"
           id="use1584"
           xlink:href="#DejaVuSans-32"
           x="108.78906" />
        <use
           height="100%"
           width="100%"
           y="0"
           style="stroke-linecap:butt;stroke-linejoin:round"
           id="use1586"
           xlink:href="#DejaVuSans-109"
           x="140.57617" />
        <path
           d="m 294.19141,29.59375 v -4.390625 h -41.3125 q 0.59375,-9.28125 5.59375,-14.140625 5,-4.859375 13.9375,-4.859375 5.17187,0 10.03125,1.265625 4.85937,1.265625 9.65625,3.8125 v -8.5 q -4.84375,-2.046875 -9.92188,-3.125 -5.07812,-1.078125 -10.29687,-1.078125 -13.09375,0 -20.73438,7.609375 -7.64062,7.625 -7.64062,20.625 0,13.421875 7.25,21.296875 Q 258.00391,56 270.31641,56 q 11.03125,0 17.45312,-7.109375 6.42188,-7.09375 6.42188,-19.296875 z m -8.98438,2.640625 q -0.0937,7.359375 -4.125,11.75 -4.03125,4.40625 -10.67187,4.40625 -7.51563,0 -12.03125,-4.25 -4.51563,-4.25 -5.20313,-11.96875 z"
           id="use1588"
           inkscape:connector-curvature="0"
           style="stroke-linecap:butt;stroke-linejoin:round" />
        <path
           d="m 308.93359,75.984375 h 8.98438 V 0 h -8.98438 z"
           id="use1590"
           inkscape:connector-curvature="0"
           style="stroke-linecap:butt;stroke-linejoin:round" />
        <use
           height="100%"
           width="100%"
           y="0"
           style="stroke-linecap:butt;stroke-linejoin:round"
           id="use1592"
           xlink:href="#DejaVuSans-97"
           x="327.29492" />
        <path
           d="M 443.46484,33.015625 V 0 h -8.98437 v 32.71875 q 0,7.765625 -3.03125,11.609375 -3.03125,3.859375 -9.07813,3.859375 -7.28125,0 -11.48437,-4.640625 -4.20313,-4.625 -4.20313,-12.640625 V 0 h -9.03125 v 54.6875 h 9.03125 v -8.5 q 3.23438,4.9375 7.59375,7.375 4.375,2.4375 10.09375,2.4375 9.42188,0 14.25,-5.828125 4.84375,-5.828125 4.84375,-17.15625 z"
           id="use1594"
           inkscape:connector-curvature="0"
           style="stroke-linecap:butt;stroke-linejoin:round" />
        <path
           d="m 482.5625,48.390625 q -7.21875,0 -11.42188,-5.640625 -4.20312,-5.640625 -4.20312,-15.453125 0,-9.8125 4.17187,-15.453125 4.1875,-5.640625 11.45313,-5.640625 7.1875,0 11.375,5.65625 4.20312,5.671875 4.20312,15.4375 0,9.71875 -4.20312,15.40625 -4.1875,5.6875 -11.375,5.6875 z m 0,7.609375 q 11.71875,0 18.40625,-7.625 6.70312,-7.609375 6.70312,-21.078125 0,-13.421875 -6.70312,-21.078125 -6.6875,-7.640625 -18.40625,-7.640625 -11.76563,0 -18.4375,7.640625 -6.65625,7.65625 -6.65625,21.078125 0,13.46875 6.65625,21.078125 Q 470.79687,56 482.5625,56 Z"
           id="use1596"
           inkscape:connector-curvature="0"
           style="stroke-linecap:butt;stroke-linejoin:round" />
        <path
           d="m 558.54102,27.984375 q 0,9.765625 -4.03125,15.125 -4.01563,5.375 -11.29688,5.375 -7.21875,0 -11.25,-5.375 -4.03125,-5.359375 -4.03125,-15.125 0,-9.71875 4.03125,-15.09375 4.03125,-5.375 11.25,-5.375 7.28125,0 11.29688,5.375 4.03125,5.375 4.03125,15.09375 z M 567.52539,6.78125 q 0,-13.953125 -6.20312,-20.765625 -6.1875,-6.8125 -18.98438,-6.8125 -4.73437,0 -8.9375,0.703125 -4.20312,0.703125 -8.15625,2.171875 V -9.1875 q 3.95313,-2.140625 7.8125,-3.15625 3.85938,-1.03125 7.85938,-1.03125 8.84375,0 13.23437,4.609375 4.39063,4.609375 4.39063,13.9375 V 9.625 Q 555.75977,4.78125 551.41602,2.390625 547.07227,0 541.00977,0 q -10.04688,0 -16.20313,7.65625 -6.15625,7.671875 -6.15625,20.328125 0,12.6875 6.15625,20.34375 Q 530.96289,56 541.00977,56 q 6.0625,0 10.40625,-2.390625 4.34375,-2.390625 7.125,-7.21875 V 54.6875 h 8.98437 z"
           id="use1598"
           inkscape:connector-curvature="0"
           style="stroke-linecap:butt;stroke-linejoin:round" />
        <use
           height="100%"
           width="100%"
           y="0"
           style="stroke-linecap:butt;stroke-linejoin:round"
           id="use1600"
           xlink:href="#DejaVuSans-97"
           x="576.61133" />
        <use
           height="100%"
           width="100%"
           y="0"
           style="stroke-linecap:butt;stroke-linejoin:round"
           id="use1602"
           xlink:href="#DejaVuSans-115"
           x="637.89062" />
        <use
           height="100%"
           width="100%"
           y="0"
           style="stroke-linecap:butt;stroke-linejoin:round"
           id="use1604"
           xlink:href="#DejaVuSans-116"
           x="689.99023" />
        <path
           d="m 785.40234,29.59375 v -4.390625 h -41.3125 q 0.59375,-9.28125 5.59375,-14.140625 5,-4.859375 13.9375,-4.859375 5.17188,0 10.03125,1.265625 4.85938,1.265625 9.65625,3.8125 v -8.5 q -4.84375,-2.046875 -9.92187,-3.125 -5.07813,-1.078125 -10.29688,-1.078125 -13.09375,0 -20.73437,7.609375 -7.64063,7.625 -7.64063,20.625 0,13.421875 7.25,21.296875 Q 749.21484,56 761.52734,56 q 11.03125,0 17.45313,-7.109375 6.42187,-7.09375 6.42187,-19.296875 z m -8.98437,2.640625 q -0.0937,7.359375 -4.125,11.75 -4.03125,4.40625 -10.67188,4.40625 -7.51562,0 -12.03125,-4.25 -4.51562,-4.25 -5.20312,-11.96875 z"
           id="use1606"
           inkscape:connector-curvature="0"
           style="stroke-linecap:butt;stroke-linejoin:round" />
        <use
           height="100%"
           width="100%"
           y="0"
           style="stroke-linecap:butt;stroke-linejoin:round"
           id="use1608"
           xlink:href="#DejaVuSans-114"
           x="790.72266" />
      </g>
    </g>
    <g
       style="stroke-linecap:butt;stroke-linejoin:round"
       id="text_12">
      <!-- C. elegans -->
      <defs
         id="defs1620">
        <path
           style="stroke-linecap:butt;stroke-linejoin:round"
           inkscape:connector-curvature="0"
           id="DejaVuSans-67"
           d="M 64.40625,67.28125 V 56.890625 q -4.984375,4.640625 -10.625,6.921875 -5.640625,2.296875 -11.984375,2.296875 -12.5,0 -19.140625,-7.640625 -6.640625,-7.640625 -6.640625,-22.09375 0,-14.40625 6.640625,-22.046875 Q 29.296875,6.6875 41.796875,6.6875 q 6.34375,0 11.984375,2.296875 5.640625,2.296875 10.625,6.9375 V 5.609375 Q 59.234375,2.09375 53.4375,0.328125 q -5.78125,-1.75 -12.21875,-1.75 -16.5625,0 -26.09375,10.125 Q 5.609375,18.84375 5.609375,36.375 q 0,17.578125 9.515625,27.703125 9.53125,10.140625 26.09375,10.140625 6.53125,0 12.3125,-1.734375 5.796875,-1.734375 10.875,-5.203125 z" />
      </defs>
      <g
         style="stroke-linecap:butt;stroke-linejoin:round"
         id="g1642"
         transform="matrix(0.1,0,0,-0.1,-1.846875,267.03122)">
        <use
           height="100%"
           width="100%"
           y="0"
           x="0"
           style="stroke-linecap:butt;stroke-linejoin:round"
           id="use1622"
           xlink:href="#DejaVuSans-67" />
        <use
           height="100%"
           width="100%"
           y="0"
           style="stroke-linecap:butt;stroke-linejoin:round"
           id="use1624"
           xlink:href="#DejaVuSans-46"
           x="69.824219" />
        <use
           height="100%"
           width="100%"
           y="0"
           style="stroke-linecap:butt;stroke-linejoin:round"
           id="use1626"
           xlink:href="#DejaVuSans-32"
           x="101.61133" />
        <path
           d="m 189.60156,29.59375 v -4.390625 h -41.3125 q 0.59375,-9.28125 5.59375,-14.140625 5,-4.859375 13.9375,-4.859375 5.17188,0 10.03125,1.265625 4.85938,1.265625 9.65625,3.8125 v -8.5 q -4.84375,-2.046875 -9.92187,-3.125 -5.07813,-1.078125 -10.29688,-1.078125 -13.09375,0 -20.73437,7.609375 -7.64063,7.625 -7.64063,20.625 0,13.421875 7.25,21.296875 Q 153.41406,56 165.72656,56 q 11.03125,0 17.45313,-7.109375 6.42187,-7.09375 6.42187,-19.296875 z m -8.98437,2.640625 q -0.0937,7.359375 -4.125,11.75 -4.03125,4.40625 -10.67188,4.40625 -7.51562,0 -12.03125,-4.25 -4.51562,-4.25 -5.20312,-11.96875 z"
           id="use1628"
           inkscape:connector-curvature="0"
           style="stroke-linecap:butt;stroke-linejoin:round" />
        <path
           d="m 204.34375,75.984375 h 8.98437 V 0 h -8.98437 z"
           id="use1630"
           inkscape:connector-curvature="0"
           style="stroke-linecap:butt;stroke-linejoin:round" />
        <path
           d="m 278.9082,29.59375 v -4.390625 h -41.3125 q 0.59375,-9.28125 5.59375,-14.140625 5,-4.859375 13.9375,-4.859375 5.17188,0 10.03125,1.265625 4.85938,1.265625 9.65625,3.8125 v -8.5 q -4.84375,-2.046875 -9.92187,-3.125 -5.07813,-1.078125 -10.29688,-1.078125 -13.09375,0 -20.73437,7.609375 -7.64063,7.625 -7.64063,20.625 0,13.421875 7.25,21.296875 Q 242.7207,56 255.0332,56 q 11.03125,0 17.45313,-7.109375 6.42187,-7.09375 6.42187,-19.296875 z m -8.98437,2.640625 q -0.0937,7.359375 -4.125,11.75 -4.03125,4.40625 -10.67188,4.40625 -7.51562,0 -12.03125,-4.25 -4.51562,-4.25 -5.20312,-11.96875 z"
           id="use1632"
           inkscape:connector-curvature="0"
           style="stroke-linecap:butt;stroke-linejoin:round" />
        <path
           d="m 329.63477,27.984375 q 0,9.765625 -4.03125,15.125 -4.01563,5.375 -11.29688,5.375 -7.21875,0 -11.25,-5.375 -4.03125,-5.359375 -4.03125,-15.125 0,-9.71875 4.03125,-15.09375 4.03125,-5.375 11.25,-5.375 7.28125,0 11.29688,5.375 4.03125,5.375 4.03125,15.09375 z M 338.61914,6.78125 q 0,-13.953125 -6.20312,-20.765625 -6.1875,-6.8125 -18.98438,-6.8125 -4.73437,0 -8.9375,0.703125 -4.20312,0.703125 -8.15625,2.171875 V -9.1875 q 3.95313,-2.140625 7.8125,-3.15625 3.85938,-1.03125 7.85938,-1.03125 8.84375,0 13.23437,4.609375 4.39063,4.609375 4.39063,13.9375 V 9.625 Q 326.85352,4.78125 322.50977,2.390625 318.16602,0 312.10352,0 q -10.04688,0 -16.20313,7.65625 -6.15625,7.671875 -6.15625,20.328125 0,12.6875 6.15625,20.34375 Q 302.05664,56 312.10352,56 q 6.0625,0 10.40625,-2.390625 4.34375,-2.390625 7.125,-7.21875 V 54.6875 h 8.98437 z"
           id="use1634"
           inkscape:connector-curvature="0"
           style="stroke-linecap:butt;stroke-linejoin:round" />
        <use
           height="100%"
           width="100%"
           y="0"
           style="stroke-linecap:butt;stroke-linejoin:round"
           id="use1636"
           xlink:href="#DejaVuSans-97"
           x="347.70508" />
        <path
           d="M 463.875,33.015625 V 0 h -8.98438 v 32.71875 q 0,7.765625 -3.03125,11.609375 -3.03125,3.859375 -9.07812,3.859375 -7.28125,0 -11.48438,-4.640625 -4.20312,-4.625 -4.20312,-12.640625 V 0 h -9.03125 v 54.6875 h 9.03125 v -8.5 q 3.23437,4.9375 7.59375,7.375 4.375,2.4375 10.09375,2.4375 9.42187,0 14.25,-5.828125 4.84375,-5.828125 4.84375,-17.15625 z"
           id="use1638"
           inkscape:connector-curvature="0"
           style="stroke-linecap:butt;stroke-linejoin:round" />
        <use
           height="100%"
           width="100%"
           y="0"
           style="stroke-linecap:butt;stroke-linejoin:round"
           id="use1640"
           xlink:href="#DejaVuSans-115"
           x="472.36328" />
      </g>
    </g>
  </g>
  <path
     inkscape:connector-curvature="0"
     id="path1667"
     style="fill:none;stroke:#595959;stroke-linecap:square;stroke-linejoin:round"
     d="M 92.414045,85.824 H 145.40113"
     clip-path="url(#p6646cf23f6)"
     transform="translate(16.601563,-82.024782)" />
  <path
     inkscape:connector-curvature="0"
     id="path1670"
     style="fill:none;stroke:#595959;stroke-width:3;stroke-linecap:square;stroke-linejoin:round"
     d="m 97.80421,85.824 h 19.16725"
     clip-path="url(#p6646cf23f6)"
     transform="translate(16.601563,-82.024782)" />
  <path
     inkscape:connector-curvature="0"
     id="path1673"
     style="fill:none;stroke:#595959;stroke-linecap:square;stroke-linejoin:round"
     d="M 92.414045,174.528 H 269.83449"
     clip-path="url(#p6646cf23f6)"
     transform="translate(16.601563,-82.024782)" />
  <path
     inkscape:connector-curvature="0"
     id="path1676"
     style="fill:none;stroke:#595959;stroke-width:3;stroke-linecap:square;stroke-linejoin:round"
     d="m 112.27882,174.528 h 63.31223"
     clip-path="url(#p6646cf23f6)"
     transform="translate(16.601563,-82.024782)" />
  <path
     inkscape:connector-curvature="0"
     id="path1679"
     style="fill:none;stroke:#595959;stroke-linecap:square;stroke-linejoin:round"
     d="M 92.414045,263.232 H 177.36424"
     clip-path="url(#p6646cf23f6)"
     transform="translate(16.601563,-82.024782)" />
  <path
     inkscape:connector-curvature="0"
     id="path1682"
     style="fill:none;stroke:#595959;stroke-width:3;stroke-linecap:square;stroke-linejoin:round"
     d="m 109.51444,263.232 h 27.42981"
     clip-path="url(#p6646cf23f6)"
     transform="translate(16.601563,-82.024782)" />
  <g
     style="stroke-linecap:butt;stroke-linejoin:round"
     id="g1702"
     clip-path="url(#p6646cf23f6)"
     transform="translate(16.601563,-82.024782)">
    <use
       height="100%"
       width="100%"
       id="use1700"
       y="85.823997"
       xlink:href="#mba82a90e69"
       x="105.15232"
       style="fill:#ffffff;stroke:#595959;stroke-linecap:butt;stroke-linejoin:round" />
  </g>
  <g
     style="stroke-linecap:butt;stroke-linejoin:round"
     id="g1707"
     clip-path="url(#p6646cf23f6)"
     transform="translate(16.601563,-82.024782)">
    <use
       height="100%"
       width="100%"
       id="use1705"
       y="174.528"
       xlink:href="#mba82a90e69"
       x="138.20541"
       style="fill:#ffffff;stroke:#595959;stroke-linecap:butt;stroke-linejoin:round" />
  </g>
  <g
     style="stroke-linecap:butt;stroke-linejoin:round"
     id="g1712"
     clip-path="url(#p6646cf23f6)"
     transform="translate(16.601563,-82.024782)">
    <use
       height="100%"
       width="100%"
       id="use1710"
       y="263.23199"
       xlink:href="#mba82a90e69"
       x="120.29507"
       style="fill:#ffffff;stroke:#595959;stroke-linecap:butt;stroke-linejoin:round" />
  </g>
  <g
     id="g3736"
     transform="translate(5.3688308,93.079743)"
     style="stroke-linecap:butt;stroke-linejoin:round">
    <g
       id="patch_9"
       style="stroke-linecap:butt;stroke-linejoin:round">
      <path
         d="M 349.71375,93.506375 H 407.72 q 2,0 2,-2 V 48.472 q 0,-2 -2,-2 h -58.00625 q -2,0 -2,2 v 43.034375 q 0,2 2,2 z"
         style="opacity:0.8;fill:#ffffff;stroke:#cccccc;stroke-linecap:butt;stroke-linejoin:miter"
         id="path1715"
         inkscape:connector-curvature="0" />
    </g>
    <g
       id="text_14"
       style="stroke-linecap:butt;stroke-linejoin:round">
      <!-- positive -->
      <defs
         id="defs1719">
        <path
           d="M 2.984375,54.6875 H 12.5 L 29.59375,8.796875 46.6875,54.6875 h 9.515625 L 35.6875,0 H 23.484375 Z"
           id="DejaVuSans-118"
           inkscape:connector-curvature="0"
           style="stroke-linecap:butt;stroke-linejoin:round" />
      </defs>
      <g
         transform="matrix(0.1,0,0,-0.1,359.10437,58.070438)"
         id="g1737"
         style="stroke-linecap:butt;stroke-linejoin:round">
        <use
           xlink:href="#DejaVuSans-112"
           id="use1721"
           style="stroke-linecap:butt;stroke-linejoin:round"
           x="0"
           y="0"
           width="100%"
           height="100%" />
        <path
           style="stroke-linecap:butt;stroke-linejoin:round"
           inkscape:connector-curvature="0"
           id="use1723"
           d="m 94.085937,48.390625 q -7.21875,0 -11.421875,-5.640625 -4.203125,-5.640625 -4.203125,-15.453125 0,-9.8125 4.171875,-15.453125 4.1875,-5.640625 11.453125,-5.640625 7.187503,0 11.375003,5.65625 4.20312,5.671875 4.20312,15.4375 0,9.71875 -4.20312,15.40625 -4.1875,5.6875 -11.375003,5.6875 z m 0,7.609375 q 11.718753,0 18.406253,-7.625 6.70312,-7.609375 6.70312,-21.078125 0,-13.421875 -6.70312,-21.078125 -6.6875,-7.640625 -18.406253,-7.640625 -11.765625,0 -18.4375,7.640625 -6.65625,7.65625 -6.65625,21.078125 0,13.46875 6.65625,21.078125 Q 82.320312,56 94.085937,56 Z" />
        <use
           x="124.6582"
           xlink:href="#DejaVuSans-115"
           id="use1725"
           style="stroke-linecap:butt;stroke-linejoin:round"
           y="0"
           width="100%"
           height="100%" />
        <use
           x="176.75781"
           xlink:href="#DejaVuSans-105"
           id="use1727"
           style="stroke-linecap:butt;stroke-linejoin:round"
           y="0"
           width="100%"
           height="100%" />
        <use
           x="204.54102"
           xlink:href="#DejaVuSans-116"
           id="use1729"
           style="stroke-linecap:butt;stroke-linejoin:round"
           y="0"
           width="100%"
           height="100%" />
        <use
           x="243.75"
           xlink:href="#DejaVuSans-105"
           id="use1731"
           style="stroke-linecap:butt;stroke-linejoin:round"
           y="0"
           width="100%"
           height="100%" />
        <use
           x="271.5332"
           xlink:href="#DejaVuSans-118"
           id="use1733"
           style="stroke-linecap:butt;stroke-linejoin:round"
           y="0"
           width="100%"
           height="100%" />
        <path
           style="stroke-linecap:butt;stroke-linejoin:round"
           inkscape:connector-curvature="0"
           id="use1735"
           d="m 386.91602,29.59375 v -4.390625 h -41.3125 q 0.59375,-9.28125 5.59375,-14.140625 5,-4.859375 13.9375,-4.859375 5.17187,0 10.03125,1.265625 4.85937,1.265625 9.65625,3.8125 v -8.5 q -4.84375,-2.046875 -9.92188,-3.125 -5.07812,-1.078125 -10.29687,-1.078125 -13.09375,0 -20.73438,7.609375 -7.64062,7.625 -7.64062,20.625 0,13.421875 7.25,21.296875 Q 350.72852,56 363.04102,56 q 11.03125,0 17.45312,-7.109375 6.42188,-7.09375 6.42188,-19.296875 z m -8.98438,2.640625 q -0.0937,7.359375 -4.125,11.75 -4.03125,4.40625 -10.67187,4.40625 -7.51563,0 -12.03125,-4.25 -4.51563,-4.25 -5.20313,-11.96875 z" />
      </g>
    </g>
    <g
       id="patch_10"
       style="stroke-linecap:butt;stroke-linejoin:round">
      <path
         d="m 351.71375,72.748563 h 20 v -7 h -20 z"
         style="fill:#72b6a1;stroke:#595959;stroke-width:0.5;stroke-linecap:butt;stroke-linejoin:miter"
         id="path1740"
         inkscape:connector-curvature="0" />
    </g>
    <g
       id="text_15"
       style="stroke-linecap:butt;stroke-linejoin:round">
      <!-- False -->
      <defs
         id="defs1744">
        <path
           d="m 9.8125,72.90625 h 41.890625 v -8.3125 H 19.671875 V 43.109375 h 28.90625 V 34.8125 H 19.671875 V 0 H 9.8125 Z"
           id="DejaVuSans-70"
           inkscape:connector-curvature="0"
           style="stroke-linecap:butt;stroke-linejoin:round" />
      </defs>
      <g
         transform="matrix(0.1,0,0,-0.1,379.71375,72.748563)"
         id="g1756"
         style="stroke-linecap:butt;stroke-linejoin:round">
        <use
           xlink:href="#DejaVuSans-70"
           id="use1746"
           style="stroke-linecap:butt;stroke-linejoin:round"
           x="0"
           y="0"
           width="100%"
           height="100%" />
        <use
           x="57.378906"
           xlink:href="#DejaVuSans-97"
           id="use1748"
           style="stroke-linecap:butt;stroke-linejoin:round"
           y="0"
           width="100%"
           height="100%" />
        <path
           style="stroke-linecap:butt;stroke-linejoin:round"
           inkscape:connector-curvature="0"
           id="use1750"
           d="m 128.08008,75.984375 h 8.98437 V 0 h -8.98437 z" />
        <use
           x="146.44141"
           xlink:href="#DejaVuSans-115"
           id="use1752"
           style="stroke-linecap:butt;stroke-linejoin:round"
           y="0"
           width="100%"
           height="100%" />
        <path
           style="stroke-linecap:butt;stroke-linejoin:round"
           inkscape:connector-curvature="0"
           id="use1754"
           d="m 254.74414,29.59375 v -4.390625 h -41.3125 q 0.59375,-9.28125 5.59375,-14.140625 5,-4.859375 13.9375,-4.859375 5.17188,0 10.03125,1.265625 4.85938,1.265625 9.65625,3.8125 v -8.5 q -4.84375,-2.046875 -9.92187,-3.125 -5.07813,-1.078125 -10.29688,-1.078125 -13.09375,0 -20.73437,7.609375 -7.64063,7.625 -7.64063,20.625 0,13.421875 7.25,21.296875 Q 218.55664,56 230.86914,56 q 11.03125,0 17.45313,-7.109375 6.42187,-7.09375 6.42187,-19.296875 z m -8.98437,2.640625 q -0.0937,7.359375 -4.125,11.75 -4.03125,4.40625 -10.67188,4.40625 -7.51562,0 -12.03125,-4.25 -4.51562,-4.25 -5.20312,-11.96875 z" />
      </g>
    </g>
    <g
       id="patch_11"
       style="stroke-linecap:butt;stroke-linejoin:round">
      <path
         d="m 351.71375,87.426688 h 20 v -7 h -20 z"
         style="fill:#e99675;stroke:#595959;stroke-width:0.5;stroke-linecap:butt;stroke-linejoin:miter"
         id="path1759"
         inkscape:connector-curvature="0" />
    </g>
    <g
       id="text_16"
       style="stroke-linecap:butt;stroke-linejoin:round">
      <!-- True -->
      <defs
         id="defs1764">
        <path
           d="M -0.296875,72.90625 H 61.375 v -8.3125 H 35.5 V 0 H 25.59375 V 64.59375 H -0.296875 Z"
           id="DejaVuSans-84"
           inkscape:connector-curvature="0"
           style="stroke-linecap:butt;stroke-linejoin:round" />
        <path
           d="M 8.5,21.578125 V 54.6875 h 8.984375 V 21.921875 q 0,-7.765625 3.015625,-11.65625 3.03125,-3.875 9.09375,-3.875 7.265625,0 11.484375,4.640625 4.234375,4.640625 4.234375,12.65625 v 31 h 8.984375 V 0 H 45.3125 V 8.40625 Q 42.046875,3.421875 37.71875,1 33.40625,-1.421875 27.6875,-1.421875 18.265625,-1.421875 13.375,4.4375 8.5,10.296875 8.5,21.578125 Z M 31.109375,56 Z"
           id="DejaVuSans-117"
           inkscape:connector-curvature="0"
           style="stroke-linecap:butt;stroke-linejoin:round" />
      </defs>
      <g
         transform="matrix(0.1,0,0,-0.1,379.71375,87.426688)"
         id="g1774"
         style="stroke-linecap:butt;stroke-linejoin:round">
        <use
           xlink:href="#DejaVuSans-84"
           id="use1766"
           style="stroke-linecap:butt;stroke-linejoin:round"
           x="0"
           y="0"
           width="100%"
           height="100%" />
        <use
           x="60.865234"
           xlink:href="#DejaVuSans-114"
           id="use1768"
           style="stroke-linecap:butt;stroke-linejoin:round"
           y="0"
           width="100%"
           height="100%" />
        <use
           x="101.97852"
           xlink:href="#DejaVuSans-117"
           id="use1770"
           style="stroke-linecap:butt;stroke-linejoin:round"
           y="0"
           width="100%"
           height="100%" />
        <path
           style="stroke-linecap:butt;stroke-linejoin:round"
           inkscape:connector-curvature="0"
           id="use1772"
           d="m 221.56055,29.59375 v -4.390625 h -41.3125 q 0.59375,-9.28125 5.59375,-14.140625 5,-4.859375 13.9375,-4.859375 5.17187,0 10.03125,1.265625 4.85937,1.265625 9.65625,3.8125 v -8.5 q -4.84375,-2.046875 -9.92188,-3.125 -5.07812,-1.078125 -10.29687,-1.078125 -13.09375,0 -20.73438,7.609375 -7.64062,7.625 -7.64062,20.625 0,13.421875 7.25,21.296875 Q 185.37305,56 197.68555,56 q 11.03125,0 17.45312,-7.109375 6.42188,-7.09375 6.42188,-19.296875 z m -8.98438,2.640625 q -0.0937,7.359375 -4.125,11.75 -4.03125,4.40625 -10.67187,4.40625 -7.51563,0 -12.03125,-4.25 -4.51563,-4.25 -5.20313,-11.96875 z" />
      </g>
    </g>
  </g>
  <defs
     id="defs1783">
    <clipPath
       id="p6646cf23f6"
       style="stroke-linecap:butt;stroke-linejoin:round">
      <rect
         height="266.112"
         width="357.12"
         x="57.599998"
         y="41.472"
         id="rect1780"
         style="stroke-linecap:butt;stroke-linejoin:round" />
    </clipPath>
  </defs>
</svg>
